<svg width="36" height="36" viewBox="0 0 36 36" fill="none" xmlns="http://www.w3.org/2000/svg">
<g id="Icon Share /  Brand">
<circle id="Ellipse 136" cx="18" cy="18" r="18" fill="white"/>
<path id="Vector 148" d="M11.3195 23.2672C10.9148 23.643 10.8914 24.2757 11.2672 24.6805C11.643 25.0852 12.2757 25.1086 12.6805 24.7328L11.3195 23.2672ZM26.9993 11.037C27.0198 10.4851 26.5889 10.0211 26.037 10.0007L17.0432 9.66758C16.4913 9.64714 16.0273 10.078 16.0069 10.6299C15.9864 11.1818 16.4172 11.6458 16.9692 11.6662L24.9637 11.9623L24.6676 19.9568C24.6471 20.5087 25.078 20.9727 25.6299 20.9931C26.1818 21.0136 26.6458 20.5828 26.6662 20.0308L26.9993 11.037ZM9.70711 20.7929C9.31658 20.4024 8.68342 20.4024 8.29289 20.7929C7.90237 21.1834 7.90237 21.8166 8.29289 22.2071L9.70711 20.7929ZM13.7929 27.7071C14.1834 28.0976 14.8166 28.0976 15.2071 27.7071C15.5976 27.3166 15.5976 26.6834 15.2071 26.2929L13.7929 27.7071ZM12.6805 24.7328L26.6805 11.7328L25.3195 10.2672L11.3195 23.2672L12.6805 24.7328ZM8.29289 22.2071L13.7929 27.7071L15.2071 26.2929L9.70711 20.7929L8.29289 22.2071Z" fill="black"/>
</g>
</svg>
