<svg width="45" height="45" viewBox="0 0 45 45" fill="none" xmlns="http://www.w3.org/2000/svg">
<g id="Tab Icon/ Avatar / Selected">
<circle id="Ellipse 25" cx="22.5" cy="22.5" r="22.5" fill="#0F212A"/>
<path id="Polygon 6" d="M23.0428 29L11.9294 28.5948C9.95132 28.5227 8.58402 26.5884 9.17607 24.6995L12.3409 14.6027C12.7331 13.3515 13.8924 12.5 15.2036 12.5L30.0692 12.5C31.2451 12.5 32.3127 13.1871 32.7997 14.2574L37.2101 23.9488C38.0768 25.8534 36.7766 28.0379 34.6892 28.1841L23.0428 29Z" fill="#0F212A"/>
<g id="Group 925">
<path id="Polygon 11" d="M23 31.595L11.9295 31.5948C9.95142 31.5227 8.58413 29.5884 9.17618 27.6995L12.341 17.6027C12.7332 16.3515 13.8925 15.5 15.2037 15.5L30.0693 15.5C31.2452 15.5 32.3128 16.1871 32.7998 17.2574L37.2102 26.9488C38.0769 28.8534 36.7767 31.0379 34.6893 31.1841L23 31.595Z" fill="white"/>
<path id="Union" fill-rule="evenodd" clip-rule="evenodd" d="M32.4032 23.9982C30.9623 28.0773 27.0725 31 22.5 31C17.9275 31 14.0377 28.0773 12.5968 23.9982C12.5647 23.9994 12.5324 24 12.5 24C11.1193 24 10 22.8807 10 21.5C10 20.2548 10.9104 19.2222 12.1019 19.0315C12.8161 13.9277 17.1994 10 22.5 10C27.8006 10 32.1839 13.9277 32.8981 19.0315C34.0896 19.2222 35 20.2548 35 21.5C35 22.8807 33.8807 24 32.5 24C32.4676 24 32.4353 23.9994 32.4032 23.9982Z" fill="#0F212A"/>
<path id="Union_2" fill-rule="evenodd" clip-rule="evenodd" d="M32.4412 22.9989L31.7055 22.9709L31.4603 23.6651C30.1561 27.3571 26.6354 30 22.5 30C18.3646 30 14.8439 27.3571 13.5397 23.6651L13.2945 22.9709L12.5588 22.9989C12.5393 22.9996 12.5197 23 12.5 23C11.6716 23 11 22.3284 11 21.5C11 20.7538 11.5458 20.1332 12.2599 20.019L12.9898 19.9022L13.0922 19.1701C13.1261 18.9281 13.1691 18.6889 13.2209 18.4531C16.1485 19.5257 19.3834 18.4665 21.1378 16.0003C22.8692 18.4217 25.7042 20 28.9079 20C29.9732 20 30.9977 19.8255 31.9544 19.5035L32.0102 19.9022L32.7401 20.019C33.4542 20.1332 34 20.7538 34 21.5C34 22.3284 33.3284 23 32.5 23C32.4803 23 32.4607 22.9996 32.4412 22.9989ZM32.9861 19.0472C32.7269 14.007 28.5581 10 23.4534 10C23.2974 10 23.1423 10.0037 22.9881 10.0111C22.8263 10.0037 22.6636 10 22.5 10C17.1994 10 12.8161 13.9277 12.1019 19.0315C10.9104 19.2222 10 20.2548 10 21.5C10 22.8807 11.1193 24 12.5 24C12.5324 24 12.5647 23.9994 12.5968 23.9982C14.0377 28.0773 17.9275 31 22.5 31C27.0725 31 30.9623 28.0773 32.4032 23.9982C32.4353 23.9994 32.4676 24 32.5 24C33.8807 24 35 22.8807 35 21.5C35 20.2856 34.1341 19.2734 32.9861 19.0472ZM19.0001 22C19.0001 22.5523 18.5523 23 18.0001 23C17.4478 23 17.0001 22.5523 17.0001 22C17.0001 21.4477 17.4478 21 18.0001 21C18.5523 21 19.0001 21.4477 19.0001 22ZM25.0001 23C25.5523 23 26.0001 22.5523 26.0001 22C26.0001 21.4477 25.5523 21 25.0001 21C24.4478 21 24.0001 21.4477 24.0001 22C24.0001 22.5523 24.4478 23 25.0001 23ZM19.1708 26C19.5826 27.1652 20.6939 28 22.0001 28C23.3063 28 24.4175 27.1652 24.8294 26H19.1708Z" fill="white"/>
<path id="Polygon 7" d="M12.5002 24L13.7992 26.25H11.2012L12.5002 24Z" fill="#0F212A"/>
<path id="Polygon 10" d="M32.5002 24L33.7992 26.25H31.2012L32.5002 24Z" fill="#0F212A"/>
</g>
</g>
</svg>
