<svg width="40" height="40" viewBox="0 0 40 40" fill="none" xmlns="http://www.w3.org/2000/svg">
<g id="Icon / Budget Friendly">
<g clip-path="url(#clip0_301_37534)">
<rect id="Rectangle 239" x="0.800781" width="38.5263" height="40" rx="4" fill="white"/>
<g id="Group 950">
<path id="Union" fill-rule="evenodd" clip-rule="evenodd" d="M21.6298 6.90161C19.1648 6.90161 16.8519 7.50172 14.8648 8.55171L14.8042 8.48756L14.7823 8.46904C12.8618 6.84424 10.9105 7.42954 9.87141 8.12433C9.33393 8.4837 9.35065 9.19121 9.69874 9.60023L11.2159 11.383C9.75272 13.0148 8.74865 15.0041 8.39603 17.1902L6.18311 17.4882C5.31692 17.6048 4.7209 18.4377 4.87346 19.3183L5.76075 24.44C5.89057 25.1894 6.5269 25.7354 7.27038 25.7354H10.5949C11.7779 27.2869 13.3514 28.5717 15.1823 29.4795V31.4902C15.1823 32.0681 15.64 32.5366 16.2045 32.5366H17.6558C18.2203 32.5366 18.678 32.0681 18.678 31.4902V30.6731C19.6281 30.8656 20.6161 30.9671 21.6298 30.9671C23.0006 30.9671 24.3243 30.7815 25.571 30.4362V31.4902C25.571 32.0681 26.0286 32.5366 26.5932 32.5366H28.0445C28.609 32.5366 29.0666 32.0681 29.0666 31.4902V28.9374C32.6258 26.7915 35.0031 23.1271 35.0031 18.9343C35.0031 12.225 28.9489 6.90161 21.6298 6.90161ZM15.0129 9.65692C16.9229 8.57626 19.1918 7.94794 21.6298 7.94794C24.6281 7.94794 24.1485 8.37012 22.8246 9.53554C21.107 11.0475 17.9683 13.8105 19.1594 18.5256C21.1042 26.2244 26.1694 27.0259 28.1863 27.345C29.1531 27.498 29.4195 27.5401 28.306 28.1781L28.0445 28.3279V31.4902H26.5932V29.0173L25.9252 29.2378C24.5886 29.6791 23.1417 29.9207 21.6298 29.9207C20.4709 29.9207 19.3501 29.7788 18.288 29.5137L17.6558 29.3559V31.4902H16.2045V28.8108L15.9053 28.6713C14.0066 27.7857 12.4041 26.4762 11.2517 24.8917L11.0739 24.6472L10.7784 24.685C10.7574 24.6877 10.7359 24.6891 10.7137 24.6891H7.27038C7.02255 24.6891 6.81044 24.5071 6.76717 24.2573L5.87988 19.1356C5.82903 18.8421 6.0277 18.5645 6.31643 18.5256L9.30356 18.1233L9.35297 17.7228C9.63112 15.4681 10.6785 13.4103 12.2702 11.7673L12.6047 11.422L10.5035 8.95291C11.3093 8.44555 12.6938 8.07508 14.1098 9.25763L14.6705 9.85061L15.0129 9.65692ZM12.9898 17.3649C13.5543 17.3649 14.0119 16.8964 14.0119 16.3185C14.0119 15.7407 13.5543 15.2722 12.9898 15.2722C12.4253 15.2722 11.9677 15.7407 11.9677 16.3185C11.9677 16.8964 12.4253 17.3649 12.9898 17.3649Z" fill="#163626"/>
</g>
<path id="&#226;&#130;&#185;&#226;&#130;&#185;" d="M27.1125 22.677C26.6135 22.677 26.2168 22.6494 25.9224 22.5941C25.6279 22.5297 25.3866 22.41 25.1984 22.2351C25.0185 22.051 24.8345 21.784 24.6463 21.4342L22.9542 18.0946C22.9535 18.0932 22.9531 18.0916 22.9531 18.09V17.6333C22.9531 17.6275 22.9578 17.6229 22.9636 17.6229H23.7506C24.1842 17.6229 24.5482 17.5677 24.8426 17.4572C25.1371 17.3375 25.3661 17.1488 25.5297 16.891C25.7 16.6264 25.802 16.2803 25.8356 15.8527C25.8361 15.8467 25.8313 15.8415 25.8251 15.8415H23.3096C23.1127 15.8415 22.9531 15.6839 22.9531 15.4894Lnan nanL22.9531 15.4894C22.9531 15.2949 23.1127 15.1373 23.3096 15.1373H25.8251C25.8312 15.1373 25.836 15.1321 25.8355 15.126C25.8107 14.8364 25.7619 14.5916 25.6892 14.3916C25.6156 14.1799 25.5093 14.0142 25.3702 13.8945C25.2312 13.7656 25.0553 13.6689 24.8426 13.6045C24.6381 13.5401 24.3887 13.5078 24.0942 13.5078H23.3026C23.1096 13.5078 22.9531 13.3533 22.9531 13.1626Lnan nanL22.9531 13.1626C22.9531 12.9719 23.1096 12.8174 23.3026 12.8174H28.3826C28.5756 12.8174 28.7321 12.9719 28.7321 13.1626Lnan nanL28.7321 13.1626C28.7321 13.3533 28.5756 13.5078 28.3826 13.5078H26.6736C26.664 13.5078 26.6594 13.5196 26.6665 13.5261C26.8127 13.6593 26.9328 13.8051 27.0266 13.9635C27.1248 14.12 27.2025 14.2949 27.2597 14.4883C27.3162 14.679 27.3528 14.8921 27.3695 15.1276C27.3699 15.133 27.3744 15.1373 27.38 15.1373H28.3756C28.5725 15.1373 28.7321 15.2949 28.7321 15.4894Lnan nanL28.7321 15.4894C28.7321 15.6839 28.5725 15.8415 28.3756 15.8415H27.3675C27.362 15.8415 27.3575 15.8457 27.357 15.851C27.3153 16.2891 27.197 16.6818 27.0021 17.0291C26.8139 17.3789 26.5276 17.6597 26.1432 17.8715C25.7702 18.0813 25.2807 18.2098 24.6746 18.2569C24.6671 18.2575 24.6626 18.2655 24.6661 18.2721L26.0941 20.937C26.225 21.1856 26.3559 21.3927 26.4868 21.5585C26.6258 21.7242 26.7649 21.8484 26.9039 21.9313C27.0511 22.0141 27.2107 22.0556 27.3824 22.0556Lnan nanL27.3824 22.0556C27.4502 22.0556 27.5051 22.1098 27.5051 22.1768V22.3663C27.5051 22.5379 27.3643 22.677 27.1906 22.677H27.1125Z" fill="white"/>
</g>
</g>
<defs>
<clipPath id="clip0_301_37534">
<rect x="0.800781" width="38.5263" height="40" rx="19.2632" fill="white"/>
</clipPath>
</defs>
</svg>
