<svg width="45" height="45" viewBox="0 0 45 45" fill="none" xmlns="http://www.w3.org/2000/svg">
<g id="Tab Icon/ Image / Selected">
<rect width="45" height="45.0001" rx="22.5" fill="white"/>
<rect id="Rectangle 871" width="45" height="45" rx="22.5" fill="#0F212A"/>
<path id="Subtract" fill-rule="evenodd" clip-rule="evenodd" d="M18.5352 15C18.5352 13.8954 19.4306 13 20.5352 13H24.7793C25.8839 13 26.7793 13.8954 26.7793 15V15.2636H30.218C31.8748 15.2636 33.218 16.6067 33.218 18.2636V26.9999C33.218 28.6568 31.8748 29.9999 30.218 29.9999H14.7832C13.1264 29.9999 11.7832 28.6568 11.7832 26.9999V18.2636C11.7832 16.6067 13.1263 15.2636 14.7832 15.2636H18.5352V15ZM22.5005 28C25.5381 28 28.0005 25.5376 28.0005 22.5C28.0005 19.4624 25.5381 17 22.5005 17C19.4629 17 17.0005 19.4624 17.0005 22.5C17.0005 25.5376 19.4629 28 22.5005 28Z" fill="white"/>
<circle id="Ellipse 165" cx="22.5" cy="22.5" r="3.5" fill="white"/>
</g>
</svg>
