<svg width="39" height="40" viewBox="0 0 39 40" fill="none" xmlns="http://www.w3.org/2000/svg">
<g id="Icon / Customisable">
<g clip-path="url(#clip0_301_37538)">
<rect id="Rectangle 236" x="0.294922" width="38.5263" height="40" rx="4" fill="white"/>
<g id="Union">
<path d="M30.3319 22.1383C30.0541 23.5757 29.5017 24.9121 28.7328 26.0876L31.2034 27.7808C30.2058 29.3062 28.9234 30.6189 27.4333 31.6401L25.7793 29.1111C24.631 29.8981 23.3255 30.4636 21.9213 30.748L22.4983 33.7336C21.6337 33.9087 20.7421 34 19.8325 34C18.9229 34 18.0312 33.9087 17.1667 33.7336L17.7436 30.748C16.3394 30.4636 15.034 29.8981 13.8857 29.1111L12.2317 31.6401C10.7415 30.6189 9.45919 29.3062 8.46158 27.7808L10.9321 26.0876C10.1633 24.9121 9.61086 23.5757 9.33307 22.1383L6.4165 22.7289C6.24546 21.8439 6.15625 20.9311 6.15625 20C6.15625 19.0689 6.24546 18.1561 6.4165 17.2711L9.33307 17.8617C9.19942 18.5533 9.12934 19.2683 9.12934 20C9.12934 13.9489 13.9213 9.04349 19.8325 9.04349C19.1177 9.04349 18.5503 10.375 17.7436 9.25203L17.1667 6.26641C18.0312 6.09132 18.9229 6 19.8325 6C20.7421 6 21.6337 6.09132 22.4983 6.26641L21.9213 9.25203C23.3255 9.53639 24.631 10.1019 25.7793 10.8889L27.4333 8.3599C28.9234 9.38114 30.2058 10.6938 31.2034 12.2192L28.7328 13.9124C29.5017 15.0879 30.0541 16.4243 30.3319 17.8617L33.2485 17.2711C33.4195 18.1561 33.5087 19.0689 33.5087 20C33.5087 20.9311 33.4195 21.8439 33.2485 22.7289L30.3319 22.1383Z" fill="#C51051"/>
<path d="M12.2317 8.3599L14.2765 11.25C13.1093 12.0499 11.7135 12.7176 10.9321 13.9124L8.46158 12.2192C9.45919 10.6938 10.7415 9.38114 12.2317 8.3599Z" fill="#C51051"/>
</g>
<path id="Union_2" fill-rule="evenodd" clip-rule="evenodd" d="M19.8881 23.9352C19.0245 22.7738 17.865 21.2144 17.865 19.5C17.865 17.7856 19.0245 16.2262 19.8881 15.0648C20.8329 13.7943 21.4235 13 19.7546 13C16.5603 13 13.9707 15.9101 13.9707 19.5C13.9707 23.0899 16.5603 26 19.7546 26C21.4235 26 20.8329 25.2057 19.8881 23.9352ZM26.4287 18.9928C26.7574 18.6149 26.7494 18.0111 26.4106 17.6443C26.0719 17.2775 25.5307 17.2865 25.2019 17.6645L22.5457 20.7177L21.3438 19.1059C21.0419 18.701 20.503 18.6458 20.1401 18.9826C19.7772 19.3195 19.7277 19.9208 20.0296 20.3257L21.2316 21.9375C21.8813 22.8089 23.0649 22.8595 23.7725 22.0461L26.4287 18.9928Z" fill="white"/>
</g>
</g>
<defs>
<clipPath id="clip0_301_37538">
<rect x="0.294922" width="38.5263" height="40" rx="19.2632" fill="white"/>
</clipPath>
</defs>
</svg>
