<svg width="24" height="24" viewBox="0 0 24 24" fill="none" xmlns="http://www.w3.org/2000/svg">
<g id="Input Field Icon/ Enter">
<path id="Union" fill-rule="evenodd" clip-rule="evenodd" d="M16.5654 0.9853C16.9484 0.605615 17.5636 0.598154 17.9558 0.968437L22.9782 5.71036C23.3809 6.09059 23.3979 6.72573 23.0161 7.12692L8.6955 22.1723L7.72737 23.1894C7.53861 23.3877 7.27681 23.4999 7.00303 23.4999H4.82711C4.82647 23.4999 4.82584 23.4999 4.8252 23.4999H1.50001C0.947726 23.4999 0.500012 23.0522 0.500011 22.5L0.500003 19.0019C0.499999 19.0006 0.499999 18.9994 0.500003 18.9982L0.5 17.3246C0.5 17.0579 0.606587 16.8022 0.796059 16.6144L2.04024 15.3813L16.5654 0.9853ZM1.50001 20.246L1.50001 22.4999H3.65592L1.50001 20.246ZM5.03973 22.4999L1.5 18.7993L1.5 17.3246L2.3862 16.4463L5.00484 19.1311L7.63901 21.8318L7.00303 22.4999H5.03973ZM22.2917 6.43748L17.2693 1.69556L14.0572 4.87906L19.3697 9.50736L22.2917 6.43748ZM3.09648 15.7423L13.3451 5.5849L18.6796 10.2324L8.32893 21.1069L5.72071 18.4328L3.09648 15.7423Z" fill="#A64B04"/>
</g>
</svg>
