<svg width="35" height="36" viewBox="0 0 35 36" fill="none" xmlns="http://www.w3.org/2000/svg">
<ellipse cx="17.3564" cy="18" rx="17.3368" ry="18" fill="#5A7989"/>
<path fill-rule="evenodd" clip-rule="evenodd" d="M15.5403 17.4979V24.5641C15.5399 24.5884 15.5442 24.6125 15.5528 24.635C15.5614 24.6576 15.5742 24.6781 15.5905 24.6954C15.6068 24.7127 15.6262 24.7264 15.6476 24.7358C15.669 24.7452 15.692 24.75 15.7152 24.75H18.2262C18.2734 24.75 18.3186 24.7304 18.352 24.6956C18.3854 24.6607 18.4041 24.6134 18.4041 24.5641V17.3802H20.2244C20.2685 17.3811 20.3113 17.3642 20.3438 17.3331C20.3764 17.302 20.3962 17.2589 20.3993 17.2129L20.5742 15.0444C20.5762 15.0191 20.5732 14.9937 20.5654 14.9697C20.5575 14.9457 20.5449 14.9237 20.5285 14.905C20.512 14.8864 20.4921 14.8715 20.4698 14.8614C20.4476 14.8512 20.4235 14.846 20.3993 14.8461H18.4041V13.3158C18.4041 13.1433 18.4697 12.9778 18.5864 12.8558C18.7032 12.7338 18.8616 12.6652 19.0267 12.6652H20.4289C20.4761 12.6652 20.5213 12.6457 20.5547 12.6108C20.588 12.5759 20.6068 12.5287 20.6068 12.4794V10.3109C20.6068 10.2616 20.588 10.2143 20.5547 10.1794C20.5213 10.1446 20.4761 10.125 20.4289 10.125H18.0572C17.3894 10.1258 16.7493 10.4036 16.2773 10.8973C15.8054 11.3911 15.5403 12.0604 15.5403 12.7582V14.8647H14.2833C14.2601 14.8643 14.2371 14.8687 14.2155 14.8777C14.1939 14.8867 14.1743 14.9001 14.1577 14.9172C14.1412 14.9342 14.128 14.9545 14.1191 14.9768C14.1101 14.9992 14.1055 15.0232 14.1055 15.0475V17.216C14.1055 17.2403 14.1101 17.2643 14.1191 17.2867C14.128 17.309 14.1412 17.3293 14.1577 17.3463C14.1743 17.3634 14.1939 17.3768 14.2155 17.3858C14.2371 17.3948 14.2601 17.3992 14.2833 17.3988H15.5403V17.5165V17.4979Z" fill="white"/>
</svg>
