<svg width="39" height="40" viewBox="0 0 39 40" fill="none" xmlns="http://www.w3.org/2000/svg">
<g id="Icon / Handcrafted">
<g clip-path="url(#clip0_301_37539)">
<rect id="Rectangle 236" x="0.294922" width="38.5263" height="40" rx="4" fill="white"/>
<g id="Group 951">
<path id="Subtract" fill-rule="evenodd" clip-rule="evenodd" d="M10.4853 22.2802C10.4857 22.3018 10.4863 22.3236 10.4873 22.3453L10.4882 22.3733C10.49 22.4335 10.4944 22.493 10.5012 22.5516L11.1874 32.3834C11.2594 33.416 12.0873 34.2155 13.0845 34.2155H25.0105C25.8154 34.2155 26.5035 33.6964 26.7813 32.9631L29.2094 29.418C29.4518 29.064 29.6364 28.6709 29.7556 28.2546L31.3859 22.561C31.5642 21.9385 32.0047 21.4335 32.5838 21.1879L33.5348 20.7846C35.0805 20.1291 34.9204 17.8043 33.3005 17.3839C32.9208 17.2853 32.5201 17.3235 32.164 17.4923L29.6061 18.7047C28.788 19.0925 28.1287 19.7686 27.7451 20.6132L26.9126 22.4463V8.73969C26.9126 7.53993 25.9758 6.56733 24.8202 6.56733C24.1126 6.56733 23.487 6.93207 23.1083 7.49036C22.8687 7.84373 22.7279 8.27465 22.7279 8.73969V6.17236C22.7279 4.9726 21.7912 4 20.6356 4C19.48 4 18.5433 4.9726 18.5433 6.17236V8.73786C18.5429 8.27351 18.4022 7.84327 18.1628 7.49036C17.7842 6.93207 17.1586 6.56733 16.4509 6.56733C15.2954 6.56733 14.3586 7.53993 14.3586 8.73969V14.2286C14.3574 13.7694 14.2167 13.3443 13.9782 12.9965C13.605 12.4521 12.9922 12.097 12.2995 12.097C11.1367 12.097 10.2045 13.096 10.2414 14.3027L10.4853 22.2802ZM22.1118 18.6497L19.2651 19.1018L20.1601 12.097C20.2871 11.1298 20.1502 10.6128 20.0263 10.1451L20.0263 10.1451C19.872 9.56233 19.738 9.05615 20.1601 7.851L20.6356 6.56733C21.0257 5.5258 20.634 4.95897 20.433 4.66814C20.3744 4.58342 20.292 4.53282 20.2428 4.5026C20.1726 4.45952 20.1699 4.45786 20.3999 4.45786C21.3454 4.45786 22.1118 5.25362 22.1118 6.23524V18.6497ZM17.7112 19.3447L14.7391 19.858V14.2349C14.7763 13.6293 15.091 13.5339 15.46 13.4221C16.0327 13.2485 16.7363 13.0352 16.7363 10.8133C16.7363 9.33135 16.4282 8.36836 16.2387 7.77597L16.2387 7.77596C16.1809 7.59506 16.1142 7.45467 16.0631 7.34693C15.9469 7.10223 15.9107 7.0259 16.2387 7.0259C17.1837 7.0259 17.9498 7.82077 17.9506 8.80163L17.7112 19.3447ZM12.0851 20.3014C11.7644 20.355 11.4743 20.4894 11.2318 20.6822L12.2995 15.7505C12.5645 14.6795 12.128 13.8726 11.8342 13.3296C11.797 13.2608 11.7606 13.1973 11.7271 13.1389C11.489 12.7236 11.3983 12.5655 12.2035 12.5655C13.1288 12.5655 13.8792 13.3427 13.8822 14.3027V20.0586L12.0851 20.3014ZM26.2325 9.00256V19.2195C26.2149 19.1952 26.1974 19.1709 26.1798 19.1466C25.7912 18.6084 25.4066 18.0757 24.7083 18.1924L23.3648 18.5V13.7682C23.3648 13.5925 23.4116 13.4201 23.4976 13.267C24.8256 10.9043 25.0633 9.43434 24.7601 8.21135C24.6686 7.84213 24.5341 7.6047 24.4497 7.45558C24.3486 7.27715 24.3192 7.22517 24.5206 7.22517C25.4661 7.22517 26.2325 8.02094 26.2325 9.00256ZM22.0149 23.9004C22.4914 24.3973 22.5137 25.2276 22.0646 25.7549L20.1998 27.9448L18.2755 25.7738C17.8171 25.2565 17.8244 24.4259 18.2918 23.9186C18.6725 23.5054 19.2411 23.4341 19.6866 23.7013C19.7881 23.7622 19.8833 23.8406 19.9683 23.9366L20.1656 24.1592L20.339 23.9555C20.4197 23.8608 20.5101 23.7823 20.6069 23.7201C21.0488 23.4362 21.624 23.4928 22.0149 23.9004ZM17.2302 22.8205C18.0232 21.9598 19.1907 21.7553 20.162 22.1984C21.1146 21.7642 22.2594 21.9499 23.0555 22.78C24.1007 23.8698 24.1451 25.6584 23.1662 26.8079L20.2216 30.2658L17.194 26.8499C16.1925 25.7199 16.2071 23.9309 17.2302 22.8205Z" fill="#224DDC"/>
</g>
</g>
</g>
<defs>
<clipPath id="clip0_301_37539">
<rect x="0.294922" width="38.5263" height="40" rx="19.2632" fill="white"/>
</clipPath>
</defs>
</svg>
