<svg width="19" height="18" viewBox="0 0 19 18" fill="none" xmlns="http://www.w3.org/2000/svg">
<g id="Group 952">
<path id="Ellipse 195" d="M17.1572 9C17.1572 13.454 13.6888 17 9.48873 17C5.28863 17 1.82031 13.454 1.82031 9C1.82031 4.54601 5.28863 1 9.48873 1C13.6888 1 17.1572 4.54601 17.1572 9Z" stroke="#5A7989" stroke-width="2"/>
<path id="i" d="M10.3261 6.7577V14H8.63706V6.7577H10.3261ZM8.52539 4.85676C8.52539 4.61133 8.60914 4.4083 8.77665 4.24766C8.94881 4.08255 9.18611 4 9.48855 4C9.78634 4 10.0213 4.08255 10.1935 4.24766C10.3656 4.4083 10.4517 4.61133 10.4517 4.85676C10.4517 5.09772 10.3656 5.29853 10.1935 5.45917C10.0213 5.61981 9.78634 5.70013 9.48855 5.70013C9.18611 5.70013 8.94881 5.61981 8.77665 5.45917C8.60914 5.29853 8.52539 5.09772 8.52539 4.85676Z" fill="#5A7989"/>
</g>
</svg>
