<svg width="36" height="36" viewBox="0 0 36 36" fill="none" xmlns="http://www.w3.org/2000/svg">
<ellipse cx="17.8466" cy="18" rx="17.3368" ry="18" fill="#5A7989"/>
<path d="M24.7184 21.2299C24.7184 21.7426 24.6212 22.2502 24.4322 22.7238C24.2433 23.1974 23.9663 23.6277 23.6172 23.9902C23.2681 24.3527 22.8536 24.6402 22.3974 24.8364C21.9413 25.0326 21.4524 25.1336 20.9586 25.1336H13.6647C12.6675 25.1336 11.7112 24.7223 11.0061 23.9902C10.301 23.2581 9.90485 22.2652 9.90485 21.2299V13.6451C9.90789 12.6118 10.3053 11.622 11.0101 10.8925C11.7149 10.163 12.6695 9.75334 13.6647 9.75335H20.9701C21.4638 9.75335 21.9527 9.85432 22.4089 10.0505C22.8651 10.2467 23.2795 10.5342 23.6287 10.8967C23.9778 11.2592 24.2548 11.6895 24.4437 12.1631C24.6327 12.6367 24.7299 13.1443 24.7299 13.657V21.2418L24.7184 21.2299ZM26.5161 13.5577C26.5151 12.0502 25.9376 10.6048 24.9105 9.53918C23.8835 8.47358 22.4909 7.875 21.0389 7.875H13.569C12.1174 7.875 10.7253 8.47371 9.69881 9.53942C8.67236 10.6051 8.0957 12.0506 8.0957 13.5577V21.3173C8.0957 22.8244 8.67236 24.2699 9.69881 25.3356C10.7253 26.4013 12.1174 27 13.569 27H21.0389C22.4909 27 23.8835 26.4014 24.9105 25.3358C25.9376 24.2702 26.5151 22.8248 26.5161 21.3173V13.5577ZM20.3046 17.2985C20.3046 16.7077 20.1358 16.1302 19.8196 15.639C19.5033 15.1478 19.0539 14.7651 18.5281 14.5392C18.0023 14.3132 17.4238 14.2543 16.8658 14.3699C16.3077 14.4854 15.7952 14.7702 15.3931 15.1883C14.991 15.6063 14.7174 16.1388 14.6068 16.7184C14.4963 17.2979 14.5538 17.8985 14.7721 18.4441C14.9903 18.9897 15.3596 19.4558 15.8331 19.7835C16.3066 20.1111 16.8631 20.2856 17.4321 20.2848C18.194 20.2827 18.924 19.9673 19.4624 19.4076C20.0007 18.8479 20.3036 18.0895 20.3046 17.2985ZM21.9186 17.2985C21.9194 18.2209 21.6566 19.1228 21.1635 19.8901C20.6704 20.6574 19.9691 21.2556 19.1484 21.609C18.3278 21.9623 17.4246 22.055 16.5532 21.8752C15.6818 21.6954 14.8814 21.2513 14.2531 20.5991C13.6249 19.9468 13.1972 19.1158 13.024 18.211C12.8509 17.3063 12.9401 16.3686 13.2805 15.5165C13.6208 14.6645 14.197 13.9364 14.936 13.4244C15.675 12.9124 16.5437 12.6396 17.4321 12.6404C18.6214 12.6425 19.7614 13.1339 20.6023 14.007C21.4433 14.8801 21.9166 16.0637 21.9186 17.2985ZM23.2497 12.3266C23.2497 12.5466 23.1869 12.7615 23.0692 12.9444C22.9515 13.1272 22.7843 13.2698 22.5886 13.3539C22.3929 13.4381 22.1775 13.4601 21.9698 13.4172C21.7621 13.3743 21.5712 13.2684 21.4215 13.1129C21.2717 12.9574 21.1697 12.7593 21.1284 12.5436C21.087 12.3279 21.1082 12.1043 21.1893 11.9011C21.2704 11.698 21.4076 11.5243 21.5837 11.4021C21.7599 11.2799 21.9669 11.2147 22.1787 11.2147C22.3195 11.2142 22.459 11.2426 22.5892 11.2983C22.7193 11.354 22.8376 11.4359 22.9371 11.5392C23.0367 11.6426 23.1156 11.7654 23.1692 11.9005C23.2228 12.0357 23.2502 12.1805 23.2497 12.3266Z" fill="white"/>
</svg>
