<svg width="36" height="36" viewBox="0 0 36 36" fill="none" xmlns="http://www.w3.org/2000/svg">
<g id="Group 802">
<ellipse id="Ellipse 138" cx="17.8642" cy="18" rx="17.3368" ry="18" fill="#5A7989"/>
<g id="in">
<path d="M11.5924 14.9597H14.4564V24.75H11.5924V14.9597ZM11.3633 11.8776C11.3633 11.3941 11.5224 10.9845 11.8406 10.6488C12.1716 10.2996 12.5661 10.125 13.0244 10.125C13.4826 10.125 13.8708 10.2996 14.1891 10.6488C14.52 10.9845 14.6855 11.3941 14.6855 11.8776C14.6855 12.3611 14.52 12.7774 14.1891 13.1265C13.8708 13.4623 13.4826 13.6302 13.0244 13.6302C12.5661 13.6302 12.1716 13.4623 11.8406 13.1265C11.5224 12.7774 11.3633 12.3611 11.3633 11.8776Z" fill="white"/>
<path d="M16.5139 14.9597H19.2633V16.2893H19.3015C19.3906 16.1012 19.5179 15.9132 19.6834 15.7252C19.8488 15.5372 20.0461 15.3693 20.2753 15.2216C20.5044 15.0739 20.7653 14.953 21.0581 14.859C21.3508 14.765 21.669 14.718 22.0127 14.718C22.7383 14.718 23.3238 14.8388 23.7693 15.0806C24.2148 15.3089 24.5585 15.6312 24.8003 16.0475C25.0549 16.4638 25.2267 16.954 25.3158 17.5181C25.4049 18.0821 25.4495 18.6932 25.4495 19.3512V24.75H22.5855V19.9556C22.5855 19.6736 22.5728 19.3848 22.5473 19.0894C22.5346 18.7805 22.4773 18.4984 22.3755 18.2433C22.2864 17.9881 22.14 17.78 21.9363 17.6188C21.7454 17.4576 21.4654 17.3771 21.0963 17.3771C20.7271 17.3771 20.428 17.4509 20.1989 17.5987C19.9698 17.733 19.7916 17.921 19.6643 18.1627C19.5497 18.391 19.4733 18.6529 19.4352 18.9483C19.397 19.2438 19.3779 19.5527 19.3779 19.875V24.75H16.5139V14.9597Z" fill="white"/>
</g>
</g>
</svg>
