<svg width="39" height="40" viewBox="0 0 39 40" fill="none" xmlns="http://www.w3.org/2000/svg">
<g id="Icon / Plus Size">
<g clip-path="url(#clip0_301_37565)">
<rect id="Rectangle 239" x="0.447266" width="38.5263" height="40" rx="4" fill="white"/>
<g id="Union">
<path d="M19.7096 19.2856C20.0895 19.2856 20.3975 19.6054 20.3975 19.9999V22.1428H22.4614C22.8414 22.1428 23.1494 22.4625 23.1494 22.857C23.1494 23.2515 22.8414 23.5713 22.4614 23.5713H20.3975V25.7142C20.3975 26.1087 20.0895 26.4285 19.7096 26.4285C19.3296 26.4285 19.0216 26.1087 19.0216 25.7142V23.5713H16.9577C16.5777 23.5713 16.2697 23.2515 16.2697 22.857C16.2697 22.4625 16.5777 22.1428 16.9577 22.1428H19.0216V19.9999C19.0216 19.6054 19.3296 19.2856 19.7096 19.2856Z" fill="#C51051"/>
<path fill-rule="evenodd" clip-rule="evenodd" d="M27.9652 11.4285C28.2697 11.4285 28.5511 11.5311 28.779 11.705L33.8969 13.444C34.4624 13.6362 34.8449 14.184 34.8449 14.8017V18.0292C34.8449 19.001 33.9306 19.6892 33.041 19.3869L29.3411 18.1298V29.9999C29.3411 30.7889 28.7251 31.4285 27.9652 31.4285H11.4539C10.694 31.4285 10.078 30.7889 10.078 29.9999V18.2856L6.34553 19.4482C5.46271 19.7232 4.57422 19.0368 4.57422 18.0799V14.8017C4.57422 14.184 4.95669 13.6362 5.52219 13.444L10.6402 11.705C10.8681 11.5311 11.1494 11.4285 11.4539 11.4285H27.9652ZM11.4539 12.857H15.8166C16.3833 14.5216 17.9123 15.7142 19.7096 15.7142C21.5069 15.7142 23.0359 14.5216 23.6025 12.857H27.9652L26.1947 18.3716C25.5565 20.3595 25.5565 22.4974 26.1947 24.4853L27.9652 29.9999H11.4539L13.7866 24.3581C15.0559 21.288 14.7177 17.788 12.8841 15.0178L11.4539 12.857ZM17.3258 12.857H22.0933C21.6175 13.7111 20.7282 14.2857 19.7096 14.2857C18.691 14.2857 17.8016 13.7111 17.3258 12.857Z" fill="#C51051"/>
</g>
</g>
</g>
<defs>
<clipPath id="clip0_301_37565">
<rect x="0.447266" width="38.5263" height="40" rx="19.2632" fill="white"/>
</clipPath>
</defs>
</svg>
