<svg width="21" height="22" viewBox="0 0 21 22" fill="none" xmlns="http://www.w3.org/2000/svg">
<path d="M21 10.6495C21 16.5311 16.299 21.2991 10.5 21.2991C4.70101 21.2991 0 16.5311 0 10.6495C0 4.76795 4.70101 0 10.5 0C16.299 0 21 4.76795 21 10.6495Z" fill="#E16300"/>
<path fill-rule="evenodd" clip-rule="evenodd" d="M15.8912 7.73485C16.1328 8.00488 16.1111 8.42079 15.8426 8.66382L8.8052 15.0344L5.09921 10.6928C4.86393 10.4172 4.89535 10.0019 5.16938 9.76527C5.44342 9.52862 5.8563 9.56021 6.09158 9.83585L8.9254 13.1557L14.9676 7.68595C15.2361 7.44293 15.6496 7.46482 15.8912 7.73485Z" fill="white" stroke="white" stroke-linecap="round"/>
</svg>
