<svg width="25" height="23" viewBox="0 0 25 23" fill="none" xmlns="http://www.w3.org/2000/svg">
<path id="Star 27" d="M13.033 1.08156C12.8833 0.620903 12.2316 0.620903 12.0819 1.08156L9.97107 7.57805C9.77026 8.19608 9.19433 8.61452 8.54448 8.61452L1.71367 8.61452C1.22931 8.61452 1.02792 9.23433 1.41978 9.51903L6.94602 13.5341C7.47175 13.916 7.69174 14.5931 7.49093 15.2111L5.38009 21.7076C5.23042 22.1683 5.75766 22.5513 6.14951 22.2666L11.6758 18.2516C12.2015 17.8696 12.9134 17.8696 13.4391 18.2516L18.9654 22.2666C19.3572 22.5513 19.8845 22.1683 19.7348 21.7076L17.6239 15.2111C17.4231 14.5931 17.6431 13.916 18.1688 13.5341L23.6951 9.51903C24.0869 9.23433 23.8856 8.61452 23.4012 8.61452L16.5704 8.61452C15.9205 8.61452 15.3446 8.19608 15.1438 7.57805L13.033 1.08156Z" fill="#163626" stroke="black"/>
</svg>
