<svg width="25" height="23" viewBox="0 0 25 23" fill="none" xmlns="http://www.w3.org/2000/svg">
<path id="Star 26" d="M12.8377 1.08156C12.688 0.620903 12.0363 0.620903 11.8866 1.08156L9.77576 7.57805C9.57494 8.19608 8.99901 8.61452 8.34917 8.61452L1.51836 8.61452C1.034 8.61452 0.832608 9.23433 1.22447 9.51903L6.75071 13.5341C7.27644 13.916 7.49643 14.5931 7.29562 15.2111L5.18478 21.7076C5.0351 22.1683 5.56234 22.5513 5.9542 22.2666L11.4804 18.2516C12.0062 17.8696 12.7181 17.8696 13.2438 18.2516L18.77 22.2666C19.1619 22.5513 19.6891 22.1683 19.5395 21.7076L17.4286 15.2111C17.2278 14.5931 17.4478 13.916 17.9735 13.5341L23.4998 9.51903C23.8916 9.23433 23.6902 8.61452 23.2059 8.61452L16.3751 8.61452C15.7252 8.61452 15.1493 8.19608 14.9485 7.57805L12.8377 1.08156Z" stroke="#163626"/>
</svg>
