<svg width="40" height="40" viewBox="0 0 40 40" fill="none" xmlns="http://www.w3.org/2000/svg">
<g id="Icon / Sustainable">
<rect x="0.800781" width="38.5263" height="40" rx="19.2632" fill="white"/>
<path id="Union" fill-rule="evenodd" clip-rule="evenodd" d="M19.7929 5.71436L20.1814 6.04301C23.075 8.49078 23.7268 11.4402 23.3415 14.1053C22.9617 16.7323 21.5813 19.07 20.4265 20.4287L20.0603 20.8596L19.6564 20.4603C16.8925 17.7279 16.2624 14.7384 16.6324 12.1182C16.9977 9.53116 18.3306 7.33473 19.4529 6.09106L19.7929 5.71436ZM19.8999 7.23763C18.9715 8.4014 17.9793 10.2154 17.6873 12.2832C17.3827 14.4409 17.834 16.9019 19.9855 19.2496C20.9553 17.9684 18.5262 15.6344 18.8299 13.5341C19.1486 11.3299 22.1328 9.33176 19.8999 7.23763ZM32.1617 13.9917L32.0402 13.4424L31.5028 13.5341C29.7287 13.837 27.1548 14.8165 25.1611 16.7954C23.1418 18.7995 21.7446 21.8069 22.3526 26.0542L22.4415 26.6749L23.0367 26.5544C24.9134 26.1747 27.6199 25.106 29.6521 23.1026C31.7137 21.0703 33.0663 18.0826 32.1617 13.9917ZM25.963 17.66C27.5565 16.0784 29.5887 15.1951 31.1439 14.8282C31.7087 18.1619 27.6681 18.1123 25.963 19.7933C24.3383 21.3949 25.0889 24.7968 23.4219 25.2364C23.0918 21.7401 24.3001 19.3105 25.963 17.66ZM6.73768 19.3102L6.30469 19.3441L6.31085 19.7933C6.3422 22.0792 7.02424 25.4998 8.9827 28.3661C10.9575 31.2562 14.2165 33.5583 19.3206 33.5705L19.8042 33.5716L19.783 33.0719C19.6797 30.6348 18.9149 27.0254 16.9333 24.1044C14.9332 21.1561 11.6966 18.9219 6.73768 19.3102ZM9.73678 27.8146C8.03476 25.3237 7.35781 22.3591 7.24916 20.2353C11.5943 20.0361 11.0416 25.1972 12.8172 27.8146C14.5394 30.3534 18.6532 30.3224 18.8299 32.6063C14.3271 32.4544 11.4851 30.3733 9.73678 27.8146ZM12.4808 8.84672C12.4733 8.52183 12.2109 8.26468 11.8947 8.27236C11.5784 8.28004 11.3281 8.54964 11.3356 8.87453C11.4111 12.1595 11.8858 14.4635 12.8172 16.3365C13.7484 18.2093 15.1092 19.5948 16.8455 21.0812C20.4237 24.1444 21.2222 27.7167 21.7958 36.5558L21.8339 37.1429L22.9769 37.0646L22.9388 36.4775C22.3668 27.6638 21.5712 23.5949 17.5789 20.1771C15.8784 18.7214 14.6617 17.459 13.8374 15.8012C13.0131 14.1436 12.5542 12.0345 12.4808 8.84672Z" fill="#01753A"/>
</g>
</svg>
