<svg width="39" height="40" viewBox="0 0 39 40" fill="none" xmlns="http://www.w3.org/2000/svg">
<g id="Icon / Views">
<g clip-path="url(#clip0_301_37564)">
<rect id="Rectangle 236" x="0.447266" width="38.5263" height="40" rx="4" fill="white"/>
<g id="Union">
<path d="M19.7099 22.857C21.2297 22.857 22.4618 21.5779 22.4618 19.9999C22.4618 18.4219 21.2297 17.1428 19.7099 17.1428C18.1901 17.1428 16.958 18.4219 16.958 19.9999C16.958 21.5779 18.1901 22.857 19.7099 22.857Z" fill="#224DDC"/>
<path fill-rule="evenodd" clip-rule="evenodd" d="M18.3936 28.4738C16.6684 28.3167 14.4515 27.8509 12.2449 26.8841C9.41638 25.6449 6.49941 23.5334 4.73477 20.0764L4.34961 19.3219L4.80735 18.6124C5.71056 17.2124 7.72416 15.4258 10.3218 14.003C12.7447 12.6759 15.8031 11.5935 19.1825 11.4457C19.3569 11.4343 19.5327 11.4285 19.7099 11.4285C19.7446 11.4285 19.7792 11.4287 19.8137 11.4291C19.8996 11.4284 19.9856 11.4283 20.0718 11.4288C23.7695 11.4237 26.9864 12.5939 29.4645 14.0558C31.9192 15.504 33.739 17.2926 34.6125 18.6464L35.0702 19.3559L34.6851 20.1104C32.9201 23.5679 30.0025 25.6796 27.1736 26.9188C24.3528 28.1544 21.5155 28.5714 19.7099 28.5714H18.3981L18.3936 28.4738ZM5.95052 19.4074C6.94132 17.8717 7.50045 20.7491 11.4543 19.3219C9.974 20.871 11.4543 17.6453 11.4543 19.9999C11.4543 22.3231 12.3445 24.4304 13.79 25.9742C10.8303 24.8862 7.72383 22.8814 5.95052 19.4074ZM19.8106 12.8578C19.625 12.8596 19.4404 12.8644 19.2567 12.8723C15.6684 13.1146 12.8302 16.2131 12.8302 19.9999C12.8302 23.5897 15.3808 26.561 18.7031 27.0668C19.0685 27.0956 19.4057 27.1087 19.7084 27.1088L19.7099 27.1428C23.5095 27.1428 26.5896 23.9448 26.5896 19.9999C26.5896 16.0899 23.5637 12.9137 19.8106 12.8578ZM27.9656 19.9999C27.9656 22.3493 27.0552 24.4779 25.5807 26.0262C28.5551 24.9424 31.6862 22.9346 33.4693 19.4414C32.417 17.8103 33.5984 21.3785 29.4645 19.9999C31.0878 21.5651 27.9656 17.5183 27.9656 19.9999Z" fill="#224DDC"/>
</g>
</g>
</g>
<defs>
<clipPath id="clip0_301_37564">
<rect x="0.447266" width="38.5263" height="40" rx="19.2632" fill="white"/>
</clipPath>
</defs>
</svg>
