<svg width="213" height="32" viewBox="0 0 213 32" fill="none" xmlns="http://www.w3.org/2000/svg">
<path fill-rule="evenodd" clip-rule="evenodd" d="M82.5072 22.578C81.8237 22.578 81.2639 22.4358 80.8279 22.1513C80.4037 21.855 80.062 21.4757 79.8027 21.0135H79.679L79.3078 22.4002H76.3381V21.5107H76.4619C76.7211 21.5107 76.9568 21.4811 77.1689 21.4218C77.3928 21.3626 77.5696 21.2441 77.6992 21.0663C77.8288 20.8766 77.8937 20.604 77.8937 20.2485V10.8978C77.8937 10.5423 77.823 10.2815 77.6815 10.1156C77.5519 9.93782 77.381 9.82522 77.1689 9.77782C76.9568 9.71856 76.7211 9.68893 76.4619 9.68893H76.3381V8.88892H79.8381V12.089C79.8381 12.2904 79.8322 12.5453 79.8204 12.8534C79.8204 13.1497 79.8086 13.4401 79.785 13.7245C79.7732 14.009 79.7615 14.2223 79.7497 14.3645H79.8381C80.0973 13.8431 80.4391 13.4342 80.8633 13.1379C81.2875 12.8297 81.8414 12.6756 82.5249 12.6756C83.6797 12.6756 84.5635 13.0727 85.1763 13.8668C85.8009 14.6608 86.1132 15.9112 86.1132 17.6179C86.1132 18.7557 85.9718 19.692 85.6889 20.4268C85.4179 21.1617 85.0113 21.7069 84.4693 22.0624C83.939 22.4061 83.2849 22.578 82.5072 22.578ZM82.083 21.3869C82.5661 21.3869 82.955 21.2446 83.2496 20.9602C83.556 20.6639 83.774 20.2372 83.9036 19.6802C84.045 19.1113 84.1157 18.4179 84.1157 17.6001C84.1157 16.7705 84.045 16.0831 83.9036 15.5379C83.774 14.9808 83.556 14.566 83.2496 14.2934C82.955 14.009 82.5602 13.8668 82.0653 13.8668C81.2168 13.8668 80.6335 14.1749 80.3153 14.7912C79.9971 15.4075 79.8381 16.3498 79.8381 17.6179C79.8381 18.4239 79.9029 19.1113 80.0325 19.6802C80.1739 20.2372 80.4096 20.6639 80.7396 20.9602C81.0695 21.2446 81.5173 21.3869 82.083 21.3869ZM70.617 22.5243C69.2736 22.5243 68.2307 22.0977 67.4883 21.2443C66.7577 20.391 66.3924 19.1939 66.3924 17.6532C66.3924 15.982 66.7459 14.7257 67.4529 13.8842C68.16 13.0427 69.1558 12.622 70.4402 12.622C71.6187 12.622 72.5437 12.9835 73.2154 13.7064C73.8989 14.4176 74.2407 15.4783 74.2407 16.8887V17.7243H68.3898C68.4134 18.5658 68.5194 19.2591 68.708 19.8043C68.9083 20.3376 69.1911 20.7288 69.5564 20.9776C69.9335 21.2265 70.3931 21.351 70.9352 21.351C71.3476 21.351 71.7129 21.2917 72.0311 21.1732C72.3611 21.0428 72.6439 20.8828 72.8796 20.6932C73.1271 20.4917 73.3215 20.2784 73.4629 20.0532C73.569 20.1006 73.6573 20.1836 73.728 20.3021C73.7988 20.4206 73.8341 20.5628 73.8341 20.7288C73.8341 20.9895 73.7163 21.2621 73.4806 21.5465C73.2567 21.8191 72.9032 22.0503 72.42 22.2399C71.9486 22.4295 71.3476 22.5243 70.617 22.5243ZM72.2079 16.7109C72.2079 16.0946 72.149 15.5554 72.0311 15.0931C71.9133 14.6309 71.7247 14.2753 71.4655 14.0265C71.2062 13.7657 70.8586 13.6353 70.4226 13.6353C70.0219 13.6353 69.6743 13.7539 69.3797 13.9909C69.0968 14.2279 68.8729 14.5776 68.708 15.0398C68.5548 15.4902 68.4605 16.0472 68.4251 16.7109H72.2079ZM86.9675 21.5107V22.4002H92.3058V21.5107H91.7932C91.5339 21.5107 91.2982 21.487 91.0861 21.4396C90.8858 21.3803 90.7208 21.2678 90.5912 21.1018C90.4616 20.924 90.3968 20.6633 90.3968 20.3196V17.5468C90.3968 17.2387 90.4203 16.8831 90.4675 16.4801C90.5264 16.0772 90.6148 15.686 90.7326 15.3068C90.8504 14.9275 91.0154 14.6134 91.2275 14.3645C91.4514 14.1156 91.7225 13.9912 92.0407 13.9912C92.2763 13.9912 92.459 14.0445 92.5886 14.1512C92.7182 14.246 92.8125 14.4001 92.8714 14.6134C92.9304 14.8149 92.9598 15.0816 92.9598 15.4134C93.5844 15.4134 94.0381 15.289 94.3209 15.0401C94.6155 14.7794 94.7628 14.4416 94.7628 14.0268C94.7628 13.6001 94.6037 13.2682 94.2856 13.0312C93.9674 12.7942 93.4783 12.6756 92.8184 12.6756C92.3117 12.6756 91.9051 12.7586 91.5987 12.9245C91.3041 13.0786 91.0626 13.2979 90.874 13.5823C90.6973 13.8549 90.5323 14.169 90.3791 14.5245H90.2907L89.9548 12.8712H87.0029V13.6712H87.0559C87.3152 13.6712 87.545 13.7008 87.7453 13.7601C87.9574 13.8075 88.1283 13.9201 88.2579 14.0979C88.3875 14.2638 88.4524 14.5245 88.4524 14.8801V20.2307C88.4524 20.5981 88.3875 20.8766 88.2579 21.0663C88.1401 21.2441 87.9692 21.3626 87.7453 21.4218C87.5332 21.4811 87.2916 21.5107 87.0206 21.5107H86.9675ZM97.7502 22.578C97.2317 22.578 96.7603 22.4772 96.3361 22.2758C95.9236 22.0624 95.5996 21.7483 95.3639 21.3335C95.1282 20.9068 95.0104 20.3676 95.0104 19.7157C95.0104 18.7676 95.3403 18.0683 96.0002 17.6179C96.6602 17.1557 97.6677 16.9009 99.0229 16.8535L100.472 16.8001V15.769C100.472 15.3423 100.437 14.969 100.366 14.649C100.307 14.329 100.172 14.0801 99.9597 13.9023C99.7476 13.7127 99.4236 13.6179 98.9875 13.6179C98.5751 13.6179 98.2569 13.7008 98.033 13.8668C97.8209 14.0327 97.6736 14.2638 97.5911 14.5601C97.5204 14.8445 97.4851 15.1764 97.4851 15.5557C96.9194 15.5557 96.4893 15.4727 96.1947 15.3068C95.9001 15.129 95.7528 14.8327 95.7528 14.4179C95.7528 13.9912 95.9001 13.6534 96.1947 13.4045C96.5011 13.1556 96.9017 12.9719 97.3967 12.8534C97.9034 12.7349 98.4573 12.6756 99.0583 12.6756C100.178 12.6756 101.014 12.9067 101.568 13.369C102.134 13.8312 102.417 14.6194 102.417 15.7334V20.2307C102.417 20.5626 102.452 20.8233 102.523 21.0129C102.594 21.1907 102.711 21.3211 102.876 21.4041C103.041 21.4752 103.147 21.5107 103.407 21.5107V22.3998L100.932 22.4002L100.631 20.9602H100.472C100.225 21.2802 99.9833 21.5646 99.7476 21.8135C99.512 22.0506 99.2409 22.2402 98.9345 22.3824C98.6281 22.5128 98.2334 22.578 97.7502 22.578ZM98.3158 21.4224C98.7636 21.4224 99.1466 21.3276 99.4648 21.138C99.783 20.9365 100.03 20.652 100.207 20.2846C100.384 19.9172 100.472 19.4905 100.472 19.0046V17.6001L99.4295 17.6535C98.8167 17.6772 98.3335 17.7779 97.98 17.9557C97.6265 18.1216 97.3731 18.3587 97.2199 18.6668C97.0785 18.975 97.0078 19.3542 97.0078 19.8046C97.0078 20.1602 97.0549 20.4624 97.1492 20.7113C97.2435 20.9483 97.3849 21.1261 97.5734 21.2446C97.7738 21.3631 98.0212 21.4224 98.3158 21.4224ZM104.49 21.5107V22.4002H109.422V21.5113H109.351C109.092 21.5113 108.856 21.4876 108.644 21.4402C108.444 21.3809 108.279 21.2683 108.149 21.1024C108.031 20.9246 107.973 20.6698 107.973 20.3379V16.7646C107.973 16.2668 108.031 15.7986 108.149 15.3601C108.279 14.9216 108.485 14.572 108.768 14.3112C109.063 14.0505 109.457 13.9201 109.952 13.9201C110.612 13.9201 111.072 14.1334 111.331 14.5601C111.602 14.9749 111.738 15.5675 111.738 16.3379V22.4002H115.061V21.5113H114.972C114.713 21.5113 114.483 21.4817 114.283 21.4224C114.094 21.3631 113.947 21.2446 113.841 21.0668C113.735 20.8772 113.682 20.5987 113.682 20.2313V16.1423C113.682 14.9334 113.423 14.0564 112.904 13.5112C112.386 12.9542 111.661 12.6756 110.73 12.6756C110.353 12.6756 109.999 12.7171 109.669 12.8001C109.351 12.8712 109.051 13.0193 108.768 13.2445C108.497 13.4697 108.238 13.8075 107.99 14.2579H107.902L107.672 12.8712H104.579V13.6712H104.649C104.909 13.6712 105.138 13.7008 105.339 13.7601C105.551 13.8075 105.716 13.9201 105.834 14.0979C105.963 14.2638 106.028 14.5186 106.028 14.8623V20.2485C106.028 20.604 105.963 20.8766 105.834 21.0663C105.716 21.2441 105.545 21.3626 105.321 21.4218C105.109 21.4811 104.867 21.5107 104.596 21.5107H104.49ZM119.298 22.578C118.52 22.578 117.86 22.4061 117.318 22.0624C116.788 21.7187 116.381 21.1854 116.098 20.4624C115.827 19.7276 115.692 18.7913 115.692 17.6535C115.692 16.5038 115.827 15.5675 116.098 14.8445C116.381 14.1097 116.788 13.5645 117.318 13.209C117.86 12.8534 118.514 12.6756 119.28 12.6756C119.952 12.6756 120.5 12.8179 120.924 13.1023C121.36 13.3868 121.707 13.7542 121.967 14.2045H122.073C122.049 14.0031 122.026 13.7838 122.002 13.5468L121.967 12.8356V12.1956V10.8623C121.967 10.5186 121.896 10.2637 121.755 10.0978C121.625 9.93189 121.448 9.82522 121.224 9.77782C121.012 9.71856 120.777 9.68893 120.517 9.68893H120.376V8.88892H123.911V20.284C123.911 20.6396 123.976 20.9063 124.106 21.084C124.247 21.2618 124.424 21.3803 124.636 21.4396C124.86 21.487 125.101 21.5107 125.361 21.5107H125.944V22.4002H122.373L122.09 20.8535H122.002C121.743 21.3869 121.401 21.8076 120.977 22.1158C120.553 22.4239 119.993 22.578 119.298 22.578ZM119.722 21.3869C120.57 21.3869 121.154 21.0787 121.472 20.4624C121.802 19.8461 121.967 18.9039 121.967 17.6357C121.967 16.8298 121.896 16.1483 121.755 15.5912C121.613 15.0223 121.378 14.5957 121.048 14.3112C120.729 14.0149 120.282 13.8668 119.704 13.8668C119.221 13.8668 118.832 14.0149 118.538 14.3112C118.243 14.6075 118.025 15.0342 117.883 15.5912C117.742 16.1483 117.671 16.8416 117.671 17.6712C117.671 18.5009 117.742 19.1942 117.883 19.7513C118.025 20.2965 118.243 20.7054 118.538 20.978C118.844 21.2506 119.239 21.3869 119.722 21.3869ZM53.4002 22.4152C52.5282 22.4152 51.88 22.2137 51.4558 21.8107C51.0316 21.3959 50.8195 20.8709 50.8195 19.8397L50.8195 13.5822H49.4938V12.8178C49.7412 12.8178 50.0005 12.7645 50.2715 12.6578C50.5426 12.5511 50.7724 12.397 50.9609 12.1956C51.1612 11.9941 51.3262 11.7452 51.4559 11.4489C51.5855 11.1407 51.6915 10.7674 51.774 10.3289H52.7639V12.5156H55.0618V13.5822H52.7639L52.7639 19.8397C52.7639 20.4205 52.8758 20.8472 53.0997 21.1198C53.3825 21.5107 54.2663 21.5107 54.7082 21.5107V22.3996C54.5694 22.41 53.5442 22.4152 53.4002 22.4152ZM56.2553 21.4167C56.4258 21.3243 56.6022 21.1884 56.6912 21.0664C56.8208 20.8768 56.8856 20.6042 56.8856 20.2486V10.8623C56.8856 10.5186 56.8149 10.2637 56.6735 10.0978C56.5439 9.93189 56.373 9.82522 56.1609 9.77782C55.9488 9.71856 55.7249 9.68893 55.4892 9.68893H55.3301V8.88892H58.83V12.5334C58.8182 12.723 58.8477 14.2401 58.8477 14.2401C59.0362 13.8608 59.2601 13.5586 59.5194 13.3334C59.7786 13.0964 60.0673 12.9304 60.3855 12.8356C60.7155 12.729 61.0749 12.6756 61.4638 12.6756C62.4536 12.6756 63.2137 12.9542 63.744 13.5112C64.2743 14.0564 64.5395 14.9334 64.5395 16.1423V20.2309C64.5395 20.5983 64.5925 20.8768 64.6985 21.0664C64.8164 21.2442 64.9696 21.3627 65.1581 21.422C65.3585 21.4812 65.5883 21.5109 65.8475 21.5109H65.9005V22.4002H62.5951V16.3379C62.5951 15.5675 62.4595 14.9749 62.1885 14.5601C61.9292 14.1334 61.4638 13.9201 60.7921 13.9201C60.3443 13.9201 59.9731 14.0445 59.6785 14.2934C59.3839 14.5305 59.1658 14.8623 59.0244 15.289C58.8948 15.7157 58.83 16.2075 58.83 16.7646V20.3375C58.83 20.6694 58.8889 20.9242 59.0068 21.102C59.1364 21.2679 59.3073 21.3805 59.5194 21.4398C59.7315 21.4872 59.9672 21.5109 60.2264 21.5109H60.2795V22.4002L55.5919 22.3975V21.5109H55.7929C55.9528 21.5109 56.1146 21.493 56.2553 21.4167Z" fill="white"/>
<path d="M194.44 21.3333C194.44 21.8243 194.044 22.2222 193.556 22.2222C193.068 22.2222 192.672 21.8243 192.672 21.3333C192.672 20.8424 193.068 20.4445 193.556 20.4445C194.044 20.4445 194.44 20.8424 194.44 21.3333Z" fill="#FF9737"/>
<path d="M198.859 10.6667C198.859 11.1576 198.463 11.5556 197.975 11.5556C197.487 11.5556 197.091 11.1576 197.091 10.6667C197.091 10.1758 197.487 9.77783 197.975 9.77783C198.463 9.77783 198.859 10.1758 198.859 10.6667Z" fill="#FF9737"/>
<path d="M130.115 22.5779C129.455 22.5779 128.896 22.5009 128.436 22.3468C127.976 22.1928 127.623 21.9735 127.375 21.689C127.14 21.3927 127.022 21.0431 127.022 20.6401C127.022 20.2964 127.093 20.0357 127.234 19.8579C127.387 19.6801 127.558 19.5557 127.747 19.4846C127.947 19.4135 128.124 19.3779 128.277 19.3779C128.277 19.8164 128.342 20.2135 128.471 20.569C128.601 20.9127 128.807 21.1853 129.09 21.3868C129.373 21.5765 129.738 21.6713 130.186 21.6713C130.811 21.6713 131.282 21.529 131.6 21.2446C131.918 20.9601 132.077 20.5987 132.077 20.1601C132.077 19.8757 132.013 19.6387 131.883 19.449C131.765 19.2594 131.547 19.0757 131.229 18.8979C130.923 18.7083 130.481 18.5009 129.903 18.2757C129.29 18.0149 128.778 17.7542 128.365 17.4934C127.965 17.2327 127.664 16.9305 127.464 16.5868C127.264 16.2431 127.163 15.8105 127.163 15.289C127.163 14.4475 127.476 13.8075 128.1 13.3689C128.737 12.9186 129.573 12.6934 130.61 12.6934C131.223 12.6934 131.73 12.7704 132.13 12.9245C132.543 13.0786 132.843 13.2801 133.032 13.5289C133.232 13.7778 133.332 14.0445 133.332 14.329C133.332 14.6727 133.215 14.9453 132.979 15.1467C132.743 15.3482 132.39 15.449 131.918 15.449C131.918 14.8564 131.789 14.3941 131.529 14.0623C131.282 13.7304 130.899 13.5645 130.38 13.5645C130.027 13.5645 129.726 13.6238 129.479 13.7423C129.243 13.8489 129.067 14.003 128.949 14.2045C128.831 14.3941 128.772 14.6253 128.772 14.8979C128.772 15.1823 128.843 15.4253 128.984 15.6268C129.137 15.8282 129.379 16.0179 129.709 16.1956C130.039 16.3616 130.481 16.5512 131.034 16.7645C131.635 17.0016 132.13 17.2505 132.519 17.5112C132.908 17.772 133.197 18.0801 133.385 18.4357C133.586 18.7794 133.686 19.2001 133.686 19.6979C133.686 20.6342 133.362 21.3513 132.714 21.849C132.077 22.335 131.211 22.5779 130.115 22.5779Z" fill="#FF9737"/>
<path d="M138.9 22.5779C138.099 22.5779 137.386 22.4179 136.762 22.0979C136.149 21.7661 135.666 21.2446 135.312 20.5335C134.959 19.8105 134.782 18.8623 134.782 17.689C134.782 16.409 134.959 15.4075 135.312 14.6845C135.666 13.9497 136.149 13.4341 136.762 13.1378C137.374 12.8297 138.064 12.6756 138.83 12.6756C139.395 12.6756 139.92 12.7467 140.403 12.8889C140.886 13.0312 141.275 13.2386 141.57 13.5112C141.864 13.7719 142.011 14.1038 142.011 14.5067C142.011 14.7675 141.953 14.9927 141.835 15.1823C141.717 15.3601 141.528 15.4964 141.269 15.5912C141.022 15.686 140.68 15.7334 140.244 15.7334C140.244 15.3423 140.203 14.9927 140.12 14.6845C140.038 14.3645 139.896 14.1097 139.696 13.9201C139.496 13.7186 139.213 13.6178 138.847 13.6178C138.423 13.6178 138.052 13.7364 137.734 13.9734C137.427 14.2104 137.192 14.6253 137.027 15.2179C136.862 15.7986 136.779 16.6164 136.779 17.6712C136.779 18.5009 136.862 19.1942 137.027 19.7512C137.204 20.2964 137.475 20.7053 137.84 20.9779C138.205 21.2387 138.688 21.369 139.289 21.369C139.666 21.369 140.008 21.3157 140.315 21.209C140.633 21.0905 140.91 20.9364 141.145 20.7468C141.381 20.5453 141.564 20.3201 141.693 20.0712C141.799 20.1424 141.882 20.2431 141.941 20.3735C142 20.492 142.029 20.6342 142.029 20.8001C142.029 21.0846 141.911 21.3631 141.676 21.6357C141.452 21.9083 141.11 22.1335 140.65 22.3113C140.191 22.4891 139.608 22.5779 138.9 22.5779Z" fill="#FF9737"/>
<path d="M145.936 22.5779C145.418 22.5779 144.946 22.4772 144.522 22.2757C144.11 22.0624 143.786 21.7483 143.55 21.3335C143.314 20.9068 143.196 20.3675 143.196 19.7157C143.196 18.7675 143.526 18.0683 144.186 17.6179C144.846 17.1557 145.854 16.9008 147.209 16.8534L148.658 16.8001V15.769C148.658 15.3423 148.623 14.969 148.552 14.649C148.493 14.329 148.358 14.0801 148.146 13.9023C147.934 13.7127 147.609 13.6178 147.173 13.6178C146.761 13.6178 146.443 13.7008 146.219 13.8667C146.007 14.0327 145.86 14.2638 145.777 14.5601C145.706 14.8445 145.671 15.1764 145.671 15.5556C145.105 15.5556 144.675 15.4727 144.381 15.3067C144.086 15.129 143.939 14.8327 143.939 14.4178C143.939 13.9912 144.086 13.6534 144.381 13.4045C144.687 13.1556 145.088 12.9719 145.583 12.8534C146.089 12.7349 146.643 12.6756 147.244 12.6756C148.364 12.6756 149.2 12.9067 149.754 13.3689C150.32 13.8312 150.603 14.6193 150.603 15.7334V20.2307C150.603 20.5625 150.638 20.8233 150.709 21.0129C150.779 21.1907 150.897 21.3211 151.062 21.404C151.227 21.4751 151.704 21.5103 151.963 21.5103H152.016V22.3997L149.118 22.4002L148.817 20.9601H148.658C148.411 21.2802 148.169 21.5646 147.934 21.8135C147.698 22.0505 147.427 22.2402 147.12 22.3824C146.814 22.5128 146.419 22.5779 145.936 22.5779ZM146.502 21.4224C146.95 21.4224 147.333 21.3276 147.651 21.1379C147.969 20.9364 148.216 20.652 148.393 20.2846C148.57 19.9172 148.658 19.4905 148.658 19.0046V17.6001L147.615 17.6534C147.003 17.6771 146.519 17.7779 146.166 17.9557C145.812 18.1216 145.559 18.3586 145.406 18.6668C145.264 18.9749 145.194 19.3542 145.194 19.8046C145.194 20.1601 145.241 20.4624 145.335 20.7113C145.429 20.9483 145.571 21.1261 145.759 21.2446C145.96 21.3631 146.207 21.4224 146.502 21.4224Z" fill="#FF9737"/>
<path d="M152.923 22.4002V21.5107H153.029C153.3 21.5107 153.541 21.4811 153.753 21.4218C153.977 21.3625 154.148 21.244 154.266 21.0662C154.396 20.8766 154.46 20.604 154.46 20.2485V14.8623C154.46 14.5186 154.396 14.2638 154.266 14.0978C154.148 13.9201 153.983 13.8075 153.771 13.7601C153.571 13.7008 153.341 13.6712 153.082 13.6712H153.011V12.8712H156.104L156.334 14.2578H156.422C156.67 13.8075 156.929 13.4697 157.2 13.2445C157.483 13.0193 157.784 12.8712 158.102 12.8C158.432 12.7171 158.785 12.6756 159.162 12.6756C160.093 12.6756 160.818 12.9541 161.337 13.5112C161.855 14.0564 162.114 14.9334 162.114 16.1423V20.2307C162.114 20.5981 162.167 20.8766 162.273 21.0662C162.379 21.244 162.527 21.3625 162.715 21.4218C162.916 21.4811 163.145 21.5107 163.405 21.5107H163.493V22.4002H160.17V16.3379C160.17 15.5675 160.034 14.9749 159.763 14.5601C159.504 14.1334 159.044 13.9201 158.385 13.9201C157.89 13.9201 157.495 14.0504 157.2 14.3112C156.917 14.5719 156.711 14.9216 156.582 15.3601C156.464 15.7986 156.405 16.2668 156.405 16.7645V20.3373C156.405 20.6692 156.464 20.924 156.582 21.1018C156.711 21.2677 156.876 21.3803 157.077 21.4396C157.289 21.487 157.524 21.5107 157.784 21.5107H157.854V22.4002H152.923Z" fill="#FF9737"/>
<path d="M164.436 22.4002V21.5107H164.542C164.813 21.5107 165.055 21.4811 165.267 21.4218C165.491 21.3625 165.662 21.244 165.78 21.0662C165.909 20.8766 165.974 20.604 165.974 20.2485V14.8623C165.974 14.5186 165.909 14.2638 165.78 14.0978C165.662 13.9201 165.497 13.8075 165.285 13.7601C165.084 13.7008 164.855 13.6712 164.595 13.6712H164.525V12.8712H167.618L167.848 14.2578H167.936C168.184 13.8075 168.443 13.4697 168.714 13.2445C168.997 13.0193 169.297 12.8712 169.616 12.8C169.945 12.7171 170.299 12.6756 170.676 12.6756C171.607 12.6756 172.332 12.9541 172.85 13.5112C173.369 14.0564 173.628 14.9334 173.628 16.1423V20.2307C173.628 20.5981 173.681 20.8766 173.787 21.0662C173.893 21.244 174.041 21.3625 174.229 21.4218C174.429 21.4811 174.659 21.5107 174.918 21.5107H175.007V22.4002H171.684V16.3379C171.684 15.5675 171.548 14.9749 171.277 14.5601C171.018 14.1334 170.558 13.9201 169.898 13.9201C169.403 13.9201 169.009 14.0504 168.714 14.3112C168.431 14.5719 168.225 14.9216 168.095 15.3601C167.978 15.7986 167.919 16.2668 167.919 16.7645V20.3373C167.919 20.6692 167.978 20.924 168.095 21.1018C168.225 21.2677 168.39 21.3803 168.59 21.4396C168.802 21.487 169.038 21.5107 169.297 21.5107H169.368V22.4002H164.436Z" fill="#FF9737"/>
<path d="M179.805 22.5779C178.461 22.5779 177.419 22.1513 176.676 21.2979C175.945 20.4446 175.58 19.2475 175.58 17.7068C175.58 16.0356 175.934 14.7793 176.641 13.9378C177.348 13.0963 178.344 12.6756 179.628 12.6756C180.806 12.6756 181.732 13.0371 182.403 13.7601C183.087 14.4712 183.428 15.5319 183.428 16.9423V17.7779H177.578C177.601 18.6194 177.707 19.3127 177.896 19.8579C178.096 20.3913 178.379 20.7824 178.744 21.0313C179.121 21.2802 179.581 21.4046 180.123 21.4046C180.535 21.4046 180.901 21.3453 181.219 21.2268C181.549 21.0964 181.832 20.9364 182.067 20.7468C182.315 20.5453 182.509 20.332 182.651 20.1068C182.757 20.1542 182.845 20.2372 182.916 20.3557C182.987 20.4742 183.022 20.6164 183.022 20.7824C183.022 21.0431 182.904 21.3157 182.668 21.6002C182.444 21.8728 182.091 22.1039 181.608 22.2935C181.136 22.4831 180.535 22.5779 179.805 22.5779ZM181.396 16.7645C181.396 16.1482 181.337 15.609 181.219 15.1467C181.101 14.6845 180.913 14.329 180.653 14.0801C180.394 13.8193 180.046 13.6889 179.61 13.6889C179.21 13.6889 178.862 13.8075 178.567 14.0445C178.285 14.2815 178.061 14.6312 177.896 15.0934C177.743 15.5438 177.648 16.1008 177.613 16.7645H181.396Z" fill="#FF9737"/>
<path d="M184.788 22.4002V21.9291V21.529H184.841C185.112 21.529 185.354 21.4994 185.566 21.4402C185.79 21.3809 185.961 21.2624 186.079 21.0846C186.208 20.895 186.273 20.6164 186.273 20.249V14.8801C186.273 14.5245 186.208 14.2638 186.079 14.0978C185.949 13.9201 185.778 13.8075 185.566 13.7601C185.366 13.7008 185.136 13.6712 184.877 13.6712H184.824V12.8712H187.775L188.111 14.5245H188.2C188.353 14.169 188.518 13.8549 188.695 13.5823C188.883 13.2978 189.125 13.0786 189.419 12.9245C189.726 12.7586 190.132 12.6756 190.639 12.6756C191.299 12.6756 191.788 12.7941 192.106 13.0312C192.424 13.2682 192.583 13.6001 192.583 14.0267C192.583 14.4415 192.436 14.7793 192.142 15.0401C191.859 15.289 191.405 15.4134 190.78 15.4134C190.78 15.0816 190.751 14.8149 190.692 14.6134C190.633 14.4001 190.539 14.246 190.409 14.1512C190.28 14.0445 190.097 13.9912 189.861 13.9912C189.543 13.9912 189.272 14.1156 189.048 14.3645C188.836 14.6134 188.671 14.9275 188.553 15.3067C188.435 15.686 188.347 16.0771 188.288 16.4801C188.241 16.8831 188.217 17.2386 188.217 17.5468V20.3196C188.217 20.6633 188.282 20.924 188.412 21.1018C188.541 21.2677 188.706 21.3803 188.907 21.4396C189.119 21.487 189.355 21.5107 189.614 21.5107H190.126V22.4002H184.788Z" fill="#FF9737"/>
<path d="M196.207 22.3997V21.5108H196.437C196.673 21.5108 196.897 21.4871 197.109 21.4397C197.321 21.3805 197.492 21.2679 197.621 21.102C197.763 20.9242 197.833 20.6694 197.833 20.3375V14.8442C197.833 14.5005 197.763 14.2457 197.621 14.0797C197.492 13.9138 197.321 13.8071 197.109 13.7597C196.897 13.7005 196.673 13.6708 196.437 13.6708H196.349V12.8708H199.778V20.2664C199.778 20.622 199.843 20.8886 199.972 21.0664C200.102 21.2442 200.273 21.3627 200.485 21.422C200.709 21.4812 200.939 21.5108 201.174 21.5108H201.404V22.3997H196.207Z" fill="#FF9737"/>
<path d="M202.113 22.3997V21.5108H202.219C202.49 21.5108 202.732 21.4812 202.944 21.422C203.168 21.3627 203.338 21.2442 203.456 21.0664C203.586 20.8768 203.651 20.6042 203.651 20.2486V14.862C203.651 14.5183 203.586 14.2634 203.456 14.0975C203.338 13.9197 203.173 13.8071 202.961 13.7597C202.761 13.7005 202.531 13.6708 202.272 13.6708H202.201V12.8708H205.295L205.524 14.2575H205.613C205.86 13.8071 206.12 13.4694 206.391 13.2442C206.673 13.019 206.974 12.8708 207.292 12.7997C207.622 12.7168 207.976 12.6753 208.353 12.6753C209.284 12.6753 210.008 12.9538 210.527 13.5108C211.045 14.056 211.305 14.9331 211.305 16.142V20.2308C211.305 20.5983 211.358 20.8768 211.464 21.0664C211.57 21.2442 211.717 21.3627 211.906 21.422C212.106 21.4812 212.336 21.5108 212.595 21.5108H212.683V22.3997H209.36V16.3375C209.36 15.5671 209.225 14.9746 208.954 14.5597C208.694 14.1331 208.235 13.9197 207.575 13.9197C207.08 13.9197 206.685 14.0501 206.391 14.3108C206.108 14.5716 205.901 14.9212 205.772 15.3597C205.654 15.7983 205.595 16.2664 205.595 16.7642V20.3375C205.595 20.6694 205.654 20.9242 205.772 21.102C205.901 21.2679 206.066 21.3805 206.267 21.4397C206.479 21.4871 206.715 21.5108 206.974 21.5108H207.045V22.3997H202.113Z" fill="#FF9737"/>
<path d="M36.1409 1.59742H13.6337C12.7479 1.59742 12.0297 2.31261 12.0297 3.19485V5.04961C11.4789 5.16939 10.9431 5.32944 10.4258 5.52651V3.19485C10.4258 1.43038 11.862 0 13.6337 0H36.1409C37.9126 0 39.3489 1.43038 39.3489 3.19484V4.79227H37.7449V3.19484C37.7449 2.31261 37.0268 1.59742 36.1409 1.59742Z" fill="#FF9737"/>
<path d="M12.0297 26.8989V28.8052C12.0297 29.6874 12.7479 30.4026 13.6337 30.4026H36.1409C37.0268 30.4026 37.7449 29.6874 37.7449 28.8052V27.1562H39.3489V28.8052C39.3489 30.5696 37.9126 32 36.1409 32H13.6337C11.862 32 10.4258 30.5696 10.4258 28.8052V26.422C10.9431 26.619 11.4789 26.7791 12.0297 26.8989Z" fill="#FF9737"/>
<path d="M31.6586 9.95459C31.5385 9.5863 31.0162 9.5863 30.896 9.95459L29.7469 13.4767C29.6932 13.6414 29.5393 13.7529 29.3656 13.7529H25.6485C25.2599 13.7529 25.0985 14.2491 25.413 14.4767L28.4191 16.6518C28.5599 16.7537 28.6188 16.9345 28.565 17.0994L27.4165 20.6197C27.2963 20.9881 27.7189 21.2948 28.0333 21.0673L31.0419 18.8903C31.1823 18.7887 31.3723 18.7887 31.5128 18.8903L34.5214 21.0673C34.8358 21.2948 35.2583 20.9881 35.1381 20.6197L33.9896 17.0994C33.9358 16.9345 33.9947 16.7537 34.1355 16.6518L37.1416 14.4767C37.4562 14.2491 37.2948 13.7529 36.9062 13.7529H33.189C33.0154 13.7529 32.8614 13.6414 32.8077 13.4767L31.6586 9.95459Z" fill="#FF9737"/>
<path fill-rule="evenodd" clip-rule="evenodd" d="M14.4357 25.5588C9.66717 25.5588 5.70868 22.1048 4.94499 17.5718H2.80242C1.25469 17.5718 0 16.3203 0 14.7764C0 13.2324 1.25469 11.9809 2.80242 11.9809H5.68444C7.20497 8.68124 10.5516 6.38969 14.4357 6.38969H40.0227C41.8366 6.38969 43.3071 7.85413 43.3071 9.66061V22.2879C43.3071 24.0943 41.8366 25.5588 40.0227 25.5588H14.4357ZM14.2913 12.5649C14.4602 12.5318 14.6337 12.5109 14.811 12.5033C16.6939 12.4226 18.2858 13.8712 18.3665 15.7389C18.4472 17.6066 16.9862 19.1861 15.1033 19.2668C13.7742 19.3238 12.5901 18.6187 11.9802 17.5421C12.5524 17.5143 12.9906 17.4667 13.2946 17.3996C13.8146 17.276 14.2707 16.9756 14.663 16.4987C15.0461 16.0129 15.2377 15.452 15.2377 14.8161C15.2377 14.2685 15.0871 13.7297 14.7861 13.1997C14.6495 12.9624 14.4846 12.7508 14.2913 12.5649ZM13.3879 12.8789C12.2636 13.4576 11.5124 14.6359 11.5457 15.9689C12.2646 15.9546 12.7693 15.9123 13.0599 15.8419C13.4157 15.7536 13.7031 15.5681 13.922 15.2855C14.1409 14.994 14.2504 14.6849 14.2504 14.3581C14.2504 13.8005 13.9629 13.3075 13.3879 12.8789ZM9.8392 15.9744C9.79012 13.2299 11.9573 10.9316 14.7379 10.8124C17.5623 10.6913 19.9501 12.8643 20.0712 15.6658C20.1076 16.5093 19.9857 17.655 19.6487 18.3706L23.9451 22.3641H21.4514L18.6679 19.7752C17.7899 20.6664 16.5303 20.8997 15.1764 20.9577C12.87 21.0566 10.8547 19.6256 10.1272 17.5718H6.57632C7.31946 21.2175 10.5558 23.9614 14.4357 23.9614H40.0227C40.9508 23.9614 41.7031 23.2121 41.7031 22.2879V9.66061C41.7031 8.73637 40.9508 7.98712 40.0227 7.98712H14.4357C10.0065 7.98712 6.41586 11.5631 6.41586 15.9742L9.8392 15.9744ZM2.80242 15.9718H4.81189C4.8121 15.1463 4.9171 14.3451 5.11437 13.5809H2.80242C2.14053 13.5809 1.60396 14.1161 1.60396 14.7764C1.60396 15.4366 2.14053 15.9718 2.80242 15.9718Z" fill="white"/>
</svg>
