<?xml version="1.0" standalone="no"?>
<!DOCTYPE svg PUBLIC "-//W3C//DTD SVG 1.1//EN" "http://www.w3.org/Graphics/SVG/1.1/DTD/svg11.dtd">
<svg xmlns="http://www.w3.org/2000/svg">
<metadata>Copyright (C) 2023 by original authors @ fontello.com</metadata>
<defs>
<font id="fontello" horiz-adv-x="1000" >
<font-face font-family="fontello" font-weight="400" font-stretch="normal" units-per-em="1000" ascent="850" descent="-150" />
<missing-glyph horiz-adv-x="1000" />
<glyph glyph-name="vector" unicode="&#xe800;" d="M10 750c-24 31-2 76 38 76h666c40 0 62-45 38-76l-276-367 0-394c0-13-5-26-16-35l-95-86c-30-28-79-6-79 35v480l-276 367z m38 29l276-368c6-8 9-18 9-28l0-480 96 86 0 394c0 10 3 20 9 28l276 368-666 0z" horiz-adv-x="762" />

<glyph glyph-name="star-empty" unicode="&#xe801;" d="M635 290l170 166-235 34-106 213-105-213-236-34 171-166-41-235 211 111 211-111z m294 199q0-12-15-27l-202-197 48-279q0-4 0-12 0-28-23-28-10 0-22 7l-251 132-250-132q-12-7-23-7-11 0-17 9t-6 19q0 4 1 12l48 279-203 197q-14 15-14 27 0 21 31 26l280 40 126 254q11 23 27 23t28-23l125-254 280-40q32-5 32-26z" horiz-adv-x="928.6" />

<glyph glyph-name="star" unicode="&#xe802;" d="M929 489q0-12-15-27l-202-197 48-279q0-4 0-12 0-11-6-19t-17-9q-10 0-22 7l-251 132-250-132q-12-7-23-7-11 0-17 9t-6 19q0 4 1 12l48 279-203 197q-14 15-14 27 0 21 31 26l280 40 126 254q11 23 27 23t28-23l125-254 280-40q32-5 32-26z" horiz-adv-x="928.6" />

<glyph glyph-name="search" unicode="&#xe827;" d="M40 433c0 208 169 377 377 377 209 0 378-169 378-377 0-209-169-378-378-378-208 0-377 169-377 378z m377 417c-230 0-417-187-417-417 0-231 187-418 417-418 109 0 207 41 281 109l262-262 28 28-262 262c68 74 109 173 109 281 0 230-187 417-418 417z" horiz-adv-x="1000" />

<glyph glyph-name="cloth" unicode="&#xe828;" d="M473 825c33 21 79 11 103-23 25-34 18-80-15-103l-30-20 139-90 54 36c13 9 30 8 42-2l234-200c15-13 18-36 7-52l-104-153c-13-17-37-21-53-7l-70 60c-3 2-7-1-6-4l104-317c8-24-9-50-34-50h-648c-23 0-41 23-35 47l78 319c1 3-3 6-6 3l-41-40c-15-15-39-14-53 2l-116 139c-13 16-11 41 5 54l233 199c11 10 27 12 40 4l59-34 186 127c23 15 27 46 10 69-16 23-48 29-70 14l-10-7-15 21 10 7c1 0 1 0 2 1z m-114-215l179 121c15 11 19 32 7 50-13 17-36 21-51 10l-22-14-31 43 22 15c40 28 96 16 124-24 29-41 22-96-18-124l-12-8 113-73 46 31c18 12 43 11 60-4l233-199c21-18 25-49 10-71l-105-153c-17-24-50-29-73-10l-41 35 92-280c10-33-13-69-48-69h-648c-34 0-57 33-49 65l70 282-15-15c-21-20-55-18-74 4l-116 139c-18 22-16 55 6 74l233 199c16 14 39 16 58 5l50-29z m149 36l-97-66 118-70 92 63-113 73z m0 17l-124-84 143-84c1-1 3-1 4 0l116 78-139 90z m-5-200l-219 129-231-197 114-136 49 48c14 14 33 13 46 5 14-8 22-25 18-44l-81-328h304v523z m53-523h285l-107 326c-6 19 1 36 14 45 13 10 32 12 47-1l77-67 103 150-232 198-187-127v-524z m-40 532c1 0 1-1 1-3v-540c0-2-1-4-3-4h-318c-8 0-13 8-11 16l81 331c6 24-22 42-40 25l-51-50c-5-5-13-4-17 1l-116 138c-5 6-4 14 1 19l233 199c4 3 9 3 14 1l226-133z m29-547c-2 0-3 2-3 4v541c0 1 0 2 1 3l194 131c4 3 10 2 14-1l234-200c5-4 6-12 2-17l-104-153c-4-6-12-7-18-2l-79 68c-19 16-47-4-39-28l108-329c3-8-3-17-11-17h-299z" horiz-adv-x="1036" />

<glyph glyph-name="footwear" unicode="&#xe829;" d="M742 784c-66 13-128-37-128-105v-289l95 109c16 18 37 28 58 30l4 135c0 10 9 18 19 17 9 0 17-8 17-18l-4-137c18-6 36-18 48-37l76-115 25 270c5 55-32 104-85 115l-125 25z m179-467l-100 153c-20 29-62 32-85 6l-122-140v-311c0-59 48-107 107-107h65c55 0 101 42 106 97l29 302z m-343 362c0 90 82 158 171 140l125-25c71-14 121-81 114-153l-60-629c-7-74-69-130-142-130h-65c-79 0-143 64-143 143v654z m-327 140c89 18 171-50 171-140v-654c0-79-64-143-143-143h-65c-73 0-135 56-142 130l-60 629c-7 72 43 139 114 153l125 25z m135-140c0 68-61 118-128 105l-125-25c-53-11-90-60-85-115l26-270 75 115c12 19 30 31 49 37l-5 137c0 10 8 18 17 18 10 1 19-7 19-17l4-135c22-2 42-12 58-30l95-109v289z m0-343l-122 140c-23 26-65 23-85-6l-100-153 29-302c5-55 51-97 106-97h65c59 0 107 48 107 107v311z" horiz-adv-x="1000" />

<glyph glyph-name="handbags" unicode="&#xe82a;" d="M500 497c-211 0-382-171-382-382v-8c0-61 49-110 110-110h544c61 0 110 49 110 110v8c0 211-171 382-382 382z m-412-382c0 227 185 412 412 412 227 0 412-185 412-412v-8c0-77-63-139-140-139h-544c-77 0-140 62-140 139v8z m412 382c-211 0-382-171-382-382v-8c0-61 49-110 110-110h544c61 0 110 49 110 110v8c0 211-171 382-382 382z m-412-382c0 227 185 412 412 412 227 0 412-185 412-412v-8c0-77-63-139-140-139h-544c-77 0-140 62-140 139v8z m412 382c-211 0-382-171-382-382v-8c0-61 49-110 110-110h544c61 0 110 49 110 110v8c0 211-171 382-382 382z m-412-382c0 227 185 412 412 412 227 0 412-185 412-412v-8c0-77-63-139-140-139h-544c-77 0-140 62-140 139v8z m559 385v100c0 73-59 132-132 132-73 0-133-59-133-132v-91c-10-3-19-6-29-10v101c0 89 72 162 162 162 89 0 162-73 162-162v-113c-10 5-20 9-30 13z m-97-402h-71c-21 0-38 17-38 38 0 21 17 38 38 38h71c21 0 38-17 38-38 0-21-17-38-38-38z m68 38c0-37-30-68-68-68h-71c-37 0-67 31-67 68 0 37 30 67 67 67h71c38 0 68-30 68-67z m206 236l27-12 7 16-11 14-23-18z m-618 23l-22 20-12-13 6-17 28 10z m591-11c-48-107-154-181-278-181v-59c148 0 275 89 332 216l-54 24z m-278-181c-131 0-243 84-286 202l-55-20c51-140 184-241 341-241v59z m-292 172c69 75 168 122 278 122v59c-127 0-241-54-321-141l43-40z m278 122c120 0 227-56 296-143l46 36c-80 101-203 166-342 166v-59z" horiz-adv-x="1000" />

<glyph glyph-name="jewellery" unicode="&#xe82b;" d="M853 688v-44h29v44c0 57-46 103-103 103-56 0-102-46-102-103v-105c9 2 19 2 29 2v103c0 41 33 74 73 74 41 0 74-33 74-74z m-412 0v-44h30v44c0 57-46 103-103 103-57 0-103-46-103-103v-105c9 2 19 2 29 2v103c0 41 33 74 74 74 40 0 73-33 73-74z m265-132c-81 0-147-66-147-147 0-81 66-147 147-147 81 0 147 66 147 147 0 81-66 147-147 147z m-177-147c0 97 79 176 177 176 97 0 176-79 176-176 0-98-79-177-176-177-98 0-177 79-177 177z m-235 147c-81 0-147-66-147-147 0-81 66-147 147-147 81 0 147 66 147 147 0 81-66 147-147 147z m-176-147c0 97 79 176 176 176 98 0 177-79 177-176 0-98-79-177-177-177-97 0-176 79-176 177z m588-206c-33 0-59-26-59-59 0-32 26-59 59-59 32 0 59 27 59 59 0 33-27 59-59 59z m-88-59c0 49 39 88 88 88 49 0 88-39 88-88 0-49-39-88-88-88-49 0-88 39-88 88z m-324 59c-32 0-59-26-59-59 0-32 27-59 59-59 33 0 59 27 59 59 0 33-26 59-59 59z m-88-59c0 49 39 88 88 88 49 0 88-39 88-88 0-49-39-88-88-88-49 0-88 39-88 88z m500-117c-16 0-29-14-29-30 0-16 13-29 29-29 16 0 29 13 29 29 0 16-13 30-29 30z m-59-30c0 33 26 59 59 59 32 0 59-26 59-59 0-32-27-59-59-59-33 0-59 27-59 59z m-353 30c-16 0-29-14-29-30 0-16 13-29 29-29 16 0 30 13 30 29 0 16-14 30-30 30z m-59-30c0 33 27 59 59 59 33 0 59-26 59-59 0-32-26-59-59-59-32 0-59 27-59 59z" horiz-adv-x="1000" />

<glyph glyph-name="gifting" unicode="&#xe82c;" d="M88 585h824v-206h-824v206z m30-29v-147h764v147h-764z m59-147h647v-471h-647v471z m29-30v-411h588v411h-588z m323 206h-29v-647h29v647z m159 168c-5 6-17 11-42 6l0 0c-24-4-53-18-79-42-27-24-45-50-53-73l-14 5 14-5c-8-24-4-37 1-43l0 0c5-6 18-12 42-7 24 5 53 19 80 43l9-11-9 11c27 23 44 50 52 73l0 0c9 24 5 37-1 43z m-48 35c30 6 56 1 71-16 15-17 16-43 6-72-10-28-31-59-61-85-30-27-63-43-93-49-30-6-55-1-70 16m147 206c-29-6-63-23-93-49z m-93-49l0 0z m0 0c-30-26-51-57-61-85z m-61-85l0 0z m0 0c-10-29-8-55 7-72z m-63 70c-19 5-28 1-30-2-3-3-7-11-2-30m-19 51c13 13 35 16 59 9 24-6 50-22 74-45l-11-11 11 11c23-24 39-50 45-74l0 0c7-24 4-46-9-59-13-13-35-16-59-10m2 122c20-21 33-43 38-61 5-19 1-28-2-30-2-3-11-7-30-2l0 0c-18 5-41 17-61 38l0 0c-20 20-33 42-38 61m93-6c-20 20-43 33-61 38l0 0m-51 19c-13-13-16-35-9-59z m36-133c-23 23-39 50-45 74l0 0m45-74c23-23 50-39 74-46z" horiz-adv-x="1000" />

<glyph glyph-name="home" unicode="&#xe82d;" d="M581 827l461-428 69-64h-95-53v-448-37h-37l-256 0h-38v228h-115v-228l-38 0h-294-37v37 448h-54-94l69 64 461 428 25 23 26-23z m-140-711h38 38 115 38 38v-38h-38v-191h219 37v37 411 37h36 1 53l-40 37-421 391-421-391-40-37h54 1 36v-37-411-37h37 257v191h-38v38z m191 266c0-43-34-77-77-77-42 0-77 34-77 77 0 42 35 77 77 77 43 0 77-35 77-77z m38 0c0 63-52 114-115 114-63 0-114-51-114-114 0-63 51-114 114-114 63 0 115 51 115 114z" horiz-adv-x="1111" />

<glyph glyph-name="cloth-1" unicode="&#xe82e;" d="M541 663l-6 8-12-8 12-8 6 8z m141-92l-5-8 6-3 5 4-6 7z m-315 5l-5-9 5-3 5 4-5 8z m118 207l-8-5 5-8 8 6-5 7z m-15 21l-6 8-8-6 6-8 8 6z m189-248l6-8 12 8-12 8-6-8z m-141 92l5 8-5 3-6-3 6-8z m-127-87l-5 8-13-8 13-8 5 8z m203 234c-28 39-81 50-120 24l11-16c29 20 71 12 94-19l15 11z m-17-119c38 27 45 80 17 119l-15-11c22-31 16-72-13-92l11-16z m-31-21l31 21-11 16-31-21 11-16z m-11 0l142-92 11 16-142 92-11-16z m197-39l-55-37 11-15 55 37-11 15z m55-3c-16 14-38 15-55 3l11-15c10 6 22 6 32-2l12 14z m238-203l-238 203-12-14 238-204 12 15z m9-66c14 21 10 49-9 66l-12-15c11-10 14-27 5-40l16-11z m-106-155l106 155-16 11-106-156 16-10z m-68-10c21-18 52-13 68 10l-16 10c-10-13-28-16-40-5l-12-15z m-75 64l75-64 12 15-74 64-13-15z m12 8c2-7-6-13-12-8l13 15c-10 7-23-2-20-13l19 6z m107-327l-107 327-19-6 108-327 18 6z m-44-64c32 0 54 33 44 64l-18-6c6-20-8-39-26-39v-19z m-660 0h660v19h-660v-19z m-46 60c-7-30 15-60 46-60v19c-18 0-32 17-27 36l-19 5z m81 329l-81-329 19-5 81 329-19 5z m12-7c-5-5-13 0-12 7l19-5c3 12-11 20-20 12l13-14z m-46-45l46 45-13 14-46-45 13-14z m-67 4c18-21 48-22 67-4l-13 14c-11-11-29-10-39 2l-15-12z m-118 141l118-141 15 12-118 141-15-12z m6 69c-21-17-23-48-6-69l15 12c-11 13-9 32 3 43l-12 14z m237 203l-237-203 12-14 237 203-12 14z m52 5c-16 10-37 8-52-5l12-14c9 7 21 8 31 2l9 17z m60-35l-60 35-9-17 60-35 9 17z m180 129l-190-130 11-15 190 129-11 16z m8 57c14-20 10-45-8-57l11-16c27 19 32 57 12 84l-15-11z m-59 12c18 13 45 8 59-12l15 11c-19 28-57 36-85 17l11-16z m-10-6l10 6-11 16-10-7 11-15z m-28 22l15-20 15 11-15 21-15-12z m12 21l-10-7 11-16 10 7-11 16z m191-255l-142 92-11-16 142-92 11 16z m-269-11l127 87-11 16-126-87 10-16z m147-69l-147 86-10-17 147-86 10 17z m-8-1c2 2 5 2 8 1l-10-17c4-2 9-2 13 1l-11 15z m119 81l-119-81 11-15 119 80-11 16z m-133-120c-2 2-3 4-3 7h19c0 4-3 8-6 10l-10-17z m-231 136l231-136 10 17-232 135-9-16z m-3 0c1 0 2 0 3 0l9 16c-8 5-17 4-24-2l12-14z m-237-203l-13 14 238 203 12-14-237-203z m-1-6c-1 2-1 5 1 6l-13 14c-9-8-10-22-2-32l14 12z m118-141l-14-12-118 141 14 12 118-141z m4 0c0-1-1-1-2-1 0 0-1 1-2 1l-14-12c8-10 22-10 32-2l-14 14z m52 51l13-14-51-51-14 14 52 51z m57-35l-19 5c2 8-1 15-7 18-5 3-12 3-18-2l-13 14c13 12 29 12 41 4 12-7 20-22 16-39z m-83-337l-19 5 83 337 19-5-83-337z m3-4c-1 0-2 0-2 1-1 1-1 2-1 3l-19 5c-3-14 7-28 22-28v19z m325 0v-19h-325v19h325z m-7-8c0 4 3 8 7 8v-19c6 0 12 5 12 11h-19z m0 554v-554h19v554h-19z m36-546c4 0 7-4 7-8h-19c0-6 6-11 12-11v19z m306 0h-306v-19h306v19z m2 4c1-1 0-2 0-3-1-1-2-1-2-1v-19c15 0 25 15 20 29l-18-6z m-110 335l19 6 109-335-18-6-110 335z m55 39l-13-14c-6 5-12 4-18 0-5-3-8-11-5-19l-19-6c-5 17 2 32 13 41 12 8 28 10 42-2z m81-69l-12-15-82 70 13 14 81-69z m4 0c-1 0-2-1-2-1-1 0-1 0-2 1l-12-15c9-8 24-6 31 5l-15 10z m106 156l16-11-107-155-15 10 106 156z m-1 5c2-1 2-3 1-5l16-11c6 10 5 23-4 31l-13-15z m-238 204l12 14 239-203-13-15-238 204z m-3 0c1 1 2 1 3 0l12 14c-7 7-18 7-26 2l11-16z m-198-134l-10 16 197 134 11-16-198-134z m3 6c0-2-1-4-3-6l-10 16c-4-2-6-6-6-10h19z m0-554v554h-19v-554h19z" horiz-adv-x="1048" />

<glyph glyph-name="health" unicode="&#xe830;" d="M485 730l16-17c30-32 81-32 111-1l22 22c100 102 263 104 365 3 102-100 104-264 4-367l-454-464-440 468c-98 104-93 269 11 367 104 98 267 93 365-11z m28 26c-112 120-300 126-420 13-119-113-125-302-12-421l467-498 482 493c115 118 114 307-4 422-117 115-305 113-420-4l-21-22c-15-16-41-16-56 0l-16 17z m64-194v-116h115c11 0 20-8 20-19 0-11-9-19-20-19h-115v-116c0-10-9-19-19-19-11 0-19 9-19 19v116h-116c-10 0-19 8-19 19 0 11 9 19 19 19h116v116c0 10 8 19 19 19 10 0 19-9 19-19z" horiz-adv-x="1115" />

<glyph glyph-name="pet" unicode="&#xe831;" d="M705 348l1 36-14 0-11-10 24-26z m-211-200l-24 26-11-10 0-15 35-1z m-199 204l-1-35 15-1 10 10-24 26z m211 200l24-26 11 10 1 15-36 1z m343 125c5 102-74 191-177 197l-5-71c64-4 114-59 111-123l71-3z m-4 4c2 0 4-2 4-4l-71 3c-2-38 27-69 65-70l2 71z m4 0l-4 0-2-71 4 0 2 71z m184-191c1 103-82 188-184 191l-2-71c63-2 115-56 114-119l72-1z m-188-182c103-3 187 79 188 182l-72 1c0-64-51-113-114-111l-2-72z m-141 4l141-4 2 72-141 4-2-72z m-23 62l-211-200 49-52 211 200-49 52z m-158-374l7 146-71 3-7-146 71-3z m-195-174c103-7 190 71 195 174l-71 3c-3-63-56-110-119-106l-5-71z m-177 197c-5-102 74-191 177-197l5 71c-64 4-113 59-111 123l-71 3z m4-4c-2 0-4 2-4 4l71-3c2 38-27 69-65 70l-2-71z m-4 0l4 0 2 71-4 1-2-72z m-184 191c-1-103 82-188 184-191l2 72c-63 1-115 55-114 118l-72 1z m188 182c-103 3-187-79-188-182l72-1c0 64 51 113 114 111l2 72z m141-4l-141 4-2-72 141-3 2 71z m23-62l211 200-49 52-211-200 49-52z m158 374l-7-146 72-3 6 146-71 3z m195 174c-103 7-190-71-195-174l71-3c3 63 56 110 119 106l5 71z" horiz-adv-x="1000" />

<glyph glyph-name="sustain" unicode="&#xe832;" d="M446 850l12-10c96-78 118-172 105-257-13-84-58-158-96-201l-13-14-13 13c-91 87-112 182-100 265 12 83 56 152 93 192l12 12z m3-48c-30-37-63-95-73-161-10-69 5-147 76-222 32 41-48 115-38 182 10 70 109 134 35 201z m405-215l-4 17-18-3c-58-9-143-41-209-104-67-63-113-159-93-294l3-20 20 4c62 12 151 46 218 110 68 64 113 160 83 290z m-205-117c53 50 120 78 172 90 18-106-115-104-172-158-53-51-28-159-83-173-11 111 29 188 83 241z m-635-53l-14-1 0-14c1-73 24-181 89-273 65-92 172-165 341-165l16 0-1 15c-3 78-28 193-94 286-66 94-173 165-337 152z m99-270c-56 79-78 173-82 241 144 6 126-158 184-241 57-81 193-80 199-153-149 5-243 71-301 153z m91 603c0 11-9 19-19 19-11-1-19-9-19-20 3-104 18-177 49-237 31-60 76-104 133-151 118-97 145-211 164-492l1-19 38 2-1 19c-19 281-46 410-178 519-56 46-96 86-123 139-27 53-42 120-45 221z" horiz-adv-x="864" />

<glyph glyph-name="plus-size" unicode="&#xe833;" d="M1257 836c-12 9-27 14-43 14h-857c-16 0-30-5-42-14l-266-87c-29-9-49-37-49-68v-164c0-47 46-82 92-68l194 58v-586c0-39 32-71 71-71h857c40 0 72 32 72 71v594l192-63c46-15 93 19 93 68v161c0 31-19 59-49 68l-265 87z m-896-62l-4 5h227c29-84 108-143 202-143 93 0 172 59 202 143h226l-67-203c-49-147-49-305 0-452l67-203h-857l71 166c97 225 71 485-67 687z m549 5c-25-43-71-72-124-72-53 0-99 29-124 72h248z m-89-358c0 20-16 36-35 36-20 0-36-16-36-36v-107h-107c-20 0-36-16-36-35 0-20 16-36 36-36h107v-107c0-20 16-36 36-36 19 0 35 16 35 36v107h108c19 0 35 16 35 36 0 19-16 35-35 35h-108v107z" horiz-adv-x="1571" />

<glyph glyph-name="frame" unicode="&#xe836;" d="M265 698c-8 8-22 8-30 0l-132-132c-8-9-8-22 0-30 8-8 21-8 29 0l118 118 118-118c8-8 21-8 29 0 8 8 8 21 0 30l-132 132z m-36-598c0-11 10-21 21-21 12 0 21 10 21 21h-42z m0 583v-583h42v583h-42z m375-83c0 12-9 21-21 21-11 0-20-9-20-21h41z m-35-515c8-8 21-8 29 0l133 133c8 8 8 21 0 29-8 9-22 9-30 0l-118-117-117 117c-9 9-22 9-30 0-8-8-8-21 0-29l133-133z m-6 515v-500h41v500h-41z" horiz-adv-x="1000" />

<glyph glyph-name="attractive-1" unicode="&#xe837;" d="M548-52c134-56 268-83 372-92l1-6h79c109 0 281 24 452 96 171 73 348 196 455 398l23 44-27 41c-53 79-163 183-312 268-150 85-345 153-569 153-5 0-10 0-16 0-2 0-4 0-6 0-11 0-21 0-32-1-205-9-390-72-537-149-157-83-279-187-334-269l-27-41 23-44c107-202 284-325 455-398z m-337 441c21-32 59-90 206-39 27 9 45 23 58 33 21 16 25 19 25-33 0-135 54-258 142-348-180 63-368 180-475 383 23 34 30 24 44 4z m762 377c11 0 22 1 33 1 227-4 411-189 411-417 0-230-187-417-417-417l0 2c-18 0-39 1-61 3-201 29-356 203-356 412 0 221 172 402 390 416z m383-768c89 91 144 215 144 352 0 54 0 73 5 75 8 2 29-49 86-75 154-49 186 10 203 41 10 20 15 28 39-8-108-204-297-321-477-385z m-189 352c0 92-75 167-167 167-92 0-167-75-167-167 0-92 75-167 167-167 92 0 167 75 167 167z" horiz-adv-x="2000" />

<glyph glyph-name="brand-tag" unicode="&#xe838;" d="M887 725l-100-101c-17 11-37 18-58 18-57 0-104-47-104-104 0-58 47-105 104-105 58 0 104 47 104 105 0 21-6 41-17 57l101 101c0-1 0-2 0-2v-354c0-8-3-16-9-22l-425-445c-12-13-32-13-45-1l-374 357c-12 12-13 32-1 45l425 441c6 7 14 10 23 10h374c1 0 2 0 2 0z m-152-152l21 21c-8 4-17 6-27 6-34 0-62-28-62-62 0-35 28-63 62-63 35 0 63 28 63 63 0 9-2 18-6 26l-21-20c-8-8-22-8-30 0-8 8-8 21 0 29z" horiz-adv-x="1000" />

<glyph glyph-name="unionmagnify" unicode="&#xe839;" d="M496 185c-27 65-61 144-61 230 0 86 34 165 61 230 43 99 70 163-61 163-217 0-393-176-393-393 0-217 176-393 393-393 131 0 104 65 61 163z m231-92c-77-70-180-113-292-113-240 0-435 195-435 435 0 240 195 435 435 435 240 0 435-195 435-435 0-112-43-215-113-292l230-230-30-30-230 230z" horiz-adv-x="1000" />

<glyph glyph-name="vector-1" unicode="&#xe83c;" d="M865 396l4 6c22 30 39 74 44 137-2 111-90 200-199 200-109 0-198-91-198-204 0-46 14-87 36-119l4-5 158-291 151 276z m-203-410l-161 278-3 7c-16 38-45 73-86 97-97 58-216 24-268-68-52-92-22-213 73-271 45-22 83-31 115-32 5 0 10 0 15-1l315-10z m-18-106l-312 10c0 0 0 1-1 1 0 0 0 0 0 0-51 1-106 15-163 44-145 86-196 273-114 418 73 129 227 182 362 130-2 17-4 34-4 52 0 171 136 310 302 310 167 0 302-139 302-310-1-21-4-41-7-60 139 64 305 14 381-122 82-145 31-332-113-418-58-29-113-43-163-44 0 0-1 0-1 0 0 0 0-1-1-1l-312-10c-4-2-10-3-15-3l-63 1-62-1c-6 0-11 1-16 3z m138 106l315 10c5 1 10 1 15 1 32 1 71 10 116 32 94 58 124 179 73 271-52 92-171 126-268 68-42-24-70-59-86-97l-3-7-162-278z" horiz-adv-x="1444" />

<glyph glyph-name="vector-(1)" unicode="&#xe83d;" d="M303 826c-25 0-45-20-45-45v-137h-167c-25 0-45-20-45-45 0-25 20-45 45-45h167v-152h-167c-25 0-45-20-45-45 0-26 20-46 45-46h167v-151h-167c-25 0-45-21-45-46 0-25 20-45 45-45h167v-167c0-25 20-46 45-46 25 0 46 21 46 46v167h151v-167c0-25 20-46 46-46 25 0 45 21 45 46v167h151v-167c0-25 21-46 46-46 25 0 45 21 45 46v167h152v-167c0-25 20-46 45-46 25 0 46 21 46 46v167h166c26 0 46 20 46 45 0 25-20 46-46 46h-166v151h166c26 0 46 20 46 46 0 25-20 45-46 45h-166v152h166c26 0 46 20 46 45 0 25-20 45-46 45h-166v137c0 25-21 45-46 45-25 0-45-20-45-45v-137h-152v137c0 25-20 45-45 45-25 0-46-20-46-45v-137h-151v137c0 25-20 45-45 45-26 0-46-20-46-45v-137h-151v137c0 25-21 45-46 45z m46-666v151h151v-151h-151z m242 0v151h151v-151h-151z m242 0v151h152v-151h-152z m152 394v-152h-152v152h152z m-243 0v-152h-151v152h151z m-242 0v-152h-151v152h151z" horiz-adv-x="1333" />

<glyph glyph-name="vector-(1)-1" unicode="&#xe83e;" d="M742 620c0-29-23-53-53-53-29 0-53 24-53 53 0 30 24 53 53 53 30 0 53-23 53-53z m-53-406c30 0 53 23 53 53 0 29-23 53-53 53-29 0-53-24-53-53 0-30 24-53 53-53z m53 229c0 30-23 54-53 54-29 0-53-24-53-54 0-29 24-53 53-53 30 0 53 24 53 53z m-53-406c30 0 53 24 53 53 0 29-23 53-53 53-29 0-53-24-53-53 0-29 24-53 53-53z m-441 812v1h848v-1c3-1 6-2 8-4l222-129c11-7 17-18 17-31v-305c0-27-28-44-52-31l-195 107v-561c0-19-16-35-35-35h-778c-20 0-35 16-35 35v561l-196-107c-23-13-52 4-52 31v305c0 13 7 24 18 31l221 129c3 2 6 3 9 4z m-142-204v-146l142 78v150l-142-82z m990 82v-150l141-78v146l-141 82z m-106 17h-636v-778h636v778z" horiz-adv-x="1389" />

<glyph glyph-name="vector-(3)" unicode="&#xe83f;" d="M230 394l237-264 244 262c59 62 58 162-2 223-48 50-120 59-177 26-13-7-25-16-36-28l-25-27-22 25c-10 11-22 21-34 28-56 34-129 28-179-22-61-59-63-160-6-223z m241 429c124 53 272 28 373-75 130-134 132-350 5-486l-385-412-374 417c-125 139-119 354 14 486 101 100 246 122 367 70z" horiz-adv-x="943" />

<glyph glyph-name="star-half-alt" unicode="&#xf123;" d="M662 316l143 140-198 29-37 5-17 34-89 179v-537l33-17 178-94-34 198-6 37z m252 146l-202-197 48-279q2-19-4-29t-19-11q-9 0-22 7l-251 132-250-132q-13-7-23-7-12 0-19 11t-3 29l48 279-203 197q-18 18-13 33t30 20l280 40 126 254q11 23 27 23 16 0 28-23l125-254 280-40q25-4 31-20t-14-33z" horiz-adv-x="928.6" />
</font>
</defs>
</svg>
